<?xml version="1.0" encoding="UTF-8" standalone="no"?>
<svg
   xmlns:dc="http://purl.org/dc/elements/1.1/"
   xmlns:cc="http://creativecommons.org/ns#"
   xmlns:rdf="http://www.w3.org/1999/02/22-rdf-syntax-ns#"
   xmlns:svg="http://www.w3.org/2000/svg"
   xmlns="http://www.w3.org/2000/svg"
   xmlns:xlink="http://www.w3.org/1999/xlink"
   xmlns:sodipodi="http://sodipodi.sourceforge.net/DTD/sodipodi-0.dtd"
   xmlns:inkscape="http://www.inkscape.org/namespaces/inkscape"
   version="1.1"
   height="688.53363"
   width="664.48456"
   id="svg257"
   sodipodi:docname="Flag_of_Chernihiv_Oblast.svg"
   inkscape:version="1.0 (4035a4fb49, 2020-05-01)">
  <metadata
     id="metadata263">
    <rdf:RDF>
      <cc:Work
         rdf:about="">
        <dc:format>image/svg+xml</dc:format>
        <dc:type
           rdf:resource="http://purl.org/dc/dcmitype/StillImage" />
        <dc:title></dc:title>
      </cc:Work>
    </rdf:RDF>
  </metadata>
  <defs
     id="defs261" />
  <sodipodi:namedview
     fit-margin-bottom="0"
     fit-margin-right="0"
     fit-margin-left="0"
     fit-margin-top="0"
     inkscape:document-rotation="0"
     pagecolor="#ffffff"
     bordercolor="#666666"
     borderopacity="1"
     objecttolerance="10"
     gridtolerance="10"
     guidetolerance="10"
     inkscape:pageopacity="0"
     inkscape:pageshadow="2"
     inkscape:window-width="1920"
     inkscape:window-height="1017"
     id="namedview259"
     showgrid="false"
     inkscape:zoom="0.95743667"
     inkscape:cx="562.56491"
     inkscape:cy="374.86048"
     inkscape:window-x="-8"
     inkscape:window-y="-8"
     inkscape:window-maximized="1"
     inkscape:current-layer="svg257" />
  <g
     transform="translate(70.880503,102.74452)"
     id="g255">
    <g
       id="right_part"
       transform="translate(-0.4)">
      <path
         style="fill:#ff0000;stroke:#990000"
         d="m 169.5,227.6 c 0.3,-2.5 0.2,-4.8 -0.3,-7.2 -1.2,-4.7 -5,-4.2 -8,-2.9 -0.7,2 -1.2,4.2 -1.9,6 0.3,2.8 0.2,6.4 -0.7,9 -0.5,2.1 1.2,4.1 2.7,4.5 7.5,1.4 15,4.1 19.5,8.3 1.1,1.3 0.5,4 -1.1,5.9 -1.5,1.9 -2.5,4.8 -1.2,6.8 1.8,-3 5,-1.6 6.3,1.3 3.9,-2.6 2.9,-5.9 1.9,-10 -0.5,-2.1 0.5,-4.8 2.4,-5.2 3.4,-0.4 5.1,2.1 7.2,4.1 2,1.9 4.8,3.5 7.4,2.4 -1.3,-2.3 -1.3,-5.7 1.6,-7.5 -0.3,-1.8 -2.1,-2.7 -3.6,-2.4 -3,0.9 -7.3,0.7 -9.1,-1.2 -1.7,-1.9 4.6,-5.9 7.2,-5.6 2.6,0.4 5.3,0 5.8,-2.6 -2.3,-2.6 -2.3,-4 -1.7,-7 l -0.6,-0.4 c -2,-1.7 -4.1,0.9 -5.4,3.4 -1.5,2.4 -3.9,4.7 -6.1,6.1 -1.9,1.2 -1.9,1.1 0,0 2.5,-1.9 4.5,-3.8 6,-6.2 0.8,-1.7 1.9,-3.1 3.4,-4 -1.5,-1.3 -1.1,-3.9 -0.5,-5.4 -2.4,-2.1 -5.7,0 -5.6,3.2 -0.2,3.8 -2.6,7.4 -5.5,9.9 -1.1,1.8 -3.2,3.4 -5.5,4 -5.9,-1 -11.8,-4.4 -14.4,-7.4 z"
         id="path8" />
      <g
         style="fill:none;stroke:#000000"
         id="g24">
        <path
           d="m 178.2,165.6 c -2.7,-6.8 -4.9,-14.3 -6.3,-20.7"
           id="path10" />
        <path
           d="m 209,69 c 4.4,-8 7.6,-14.2 11.3,-21.85"
           id="path12" />
        <path
           d="m 217.2,146.4 c -8.4,-6.3 -15.5,-11.3 -22.8,-17.65"
           id="path14" />
        <path
           d="m 234.1,97.9 c -7.5,1.1 -15.8,1.9 -22.1,2.4"
           id="path16" />
        <path
           d="m 228.4,123.8 c -9.2,-2.6 -15.4,-4.6 -23.9,-7.5"
           id="path18" />
        <path
           d="M 198.2,160.8 C 192.7,153 189,146.7 185.3,139.45"
           id="path20" />
        <path
           d="m 231.4,71.4 c -5.9,4.1 -12.3,8 -18,11.4"
           id="path22" />
      </g>
      <path
         style="fill:#ffcc00;stroke:#996600"
         d="m 169.9,27.8 c -0.6,1.9 -2.9,1.5 -3.1,-0.2 -0.4,0.2 -0.8,0.1 -1.2,-0.2 -1.4,2 -3.9,1.4 -4,-1.6 0,-3 3,-4 4.4,-2.3 0.5,-1.8 -0.6,-3.2 -2.4,-3.3 -0.7,0 -1.4,0.6 -1.6,1 0.1,-2 -0.8,-3.3 -1.9,-5.2 -1.1,1.8 -2,3.1 -2,5.2 -0.1,-0.4 -0.6,-1 -1.6,-1 -1.9,0.1 -3,1.5 -2.4,3.3 1.5,-2.1 4.5,0 4.4,2.3 0,2.4 -2.9,3.5 -4.2,1.5 -0.3,0.3 -0.6,0.3 -1,0.2 -0.6,1.6 -2.6,2.8 -3.2,0.2 -0.2,-1.6 0,-4.3 2,-3.8 -0.3,-1.1 -1.2,-2.3 -2.4,-2.2 -1,0.2 -1.7,1.2 -1.7,2.2 -0.7,-1.7 -1.7,-2.7 -3.3,-2.6 2.1,3.7 3.2,7.2 3.8,10.9 7.7,-2.2 15.7,-2.2 23.2,0 0.4,-4.3 1.7,-7.3 3.8,-10.9 -1.5,-0.1 -2.7,0.8 -3.1,2.6 -0.2,-1.3 -1,-2.2 -2,-2.2 -1.2,0.1 -2.1,0.9 -2.3,2.2 1.8,-0.1 2.6,2.2 2,3.9 z"
         id="path26" />
      <path
         style="fill:#ffcc00;stroke:#996600"
         d="m 171.6,37.6 v -5.2 c -7.6,-2.2 -16.1,-2.2 -23.1,0 v 5.2 c 8.8,-2.2 14.6,-2.5 22.8,-0.1 z"
         id="path28" />
      <path
         style="fill:#ff0000;stroke:#990000"
         d="m 187,53.6 c -0.4,0.1 -0.9,0.3 -1.2,1 -1.2,2.6 -6.2,5.2 -7.5,2.6 -0.5,-1.1 -1,-1.5 -1.8,-2.2 -1.4,-1.1 -3.2,-1.6 -5,-1.6 -2.9,-0.1 -4.8,2.4 -5.4,4.8 0.8,-0.364766 1.7,-0.7 2.5,-1 2.5,-2.9 6.3,0.6 7.9,2.9 3.5,5.5 10.2,-0.8 10.4,-6.6 z"
         id="path30" />
      <path
         style="fill:#000000;stroke:#666666"
         d="m 172.2,40.6 c 0,-1.2 -0.2,-2.2 -0.9,-3.1 -6.6,-2.2 -14.7,-2.5 -21.9,0 -2.2,0.9 -4.8,1.4 -7,0.3 -0.3,3 2,3.6 3.9,4 -1.9,5 -2.8,9.8 -2.8,15.5 v 0 c 3.1,-0.4 5,-3.4 6.6,-5.5 -2.3,3.5 -3,6.3 -2.5,9.7 2.7,-0.7 4.9,-2.2 6.4,-5 -1.1,2.5 -1.6,6.6 -0.5,8.8 -1,2.5 -0.7,5.2 0.2,7.6 2.9,-1.3 4.7,-2.6 6.6,-4.6 l 0.1,4 c 0.1,3.8 0.4,5.7 2.9,6.2 -1.8,-6.9 -1,-11.6 3.5,-14.2 -3.6,-3.6 -3.5,-9.1 0.3,-12.8 3.2,-3.1 4.7,-4.6 4,-8.5 0.5,-0.9 0.7,-1.5 1,-2.3 z"
         id="path32" />
      <path
         style="fill:#ffcc00;stroke:#996600"
         d="m 176.5,43.4 c -0.3,-2.2 -2.5,-2.7 -4.3,-2.8 -0.4,0.9 -0.8,1.7 -1,2.3 0.3,1.7 0.3,2.6 -0.3,4.2 -0.7,1.5 -2.2,3 -3.6,4.3 -4.9,4.6 -3.6,9.2 -0.2,13.1 2.2,-3.3 6.4,-4 9.3,-0.8 -0.1,-5.2 -5.5,-8.4 -10,-5.4 0.2,-2.4 1.6,-4.4 4.2,-4.8 1.5,-1.4 3.8,-1.5 5,-0.8 2.8,-1.7 6,-0.6 7,1.8 1.6,-4.9 0.9,-9.4 -6,-11.1 z"
         id="path34" />
      <g
         style="fill:#000000;stroke:#666666"
         id="g186">
        <path
           d="m 187.4,126.3 c 1.3,7.9 1.7,10 2.4,14.6 -1.3,-0.3 -2.4,-0.6 -3.6,-1 2.4,3.2 5,6.5 7.4,9.2 12.7,16.1 29.3,28.1 41,22.3 -14.6,-12.7 -29.5,-27.6 -39.4,-42.3 -3.2,-0.7 -5,-1.2 -7.8,-2.7 z"
           id="path36" />
        <path
           d="m 198.2,69.4 c 4.1,-2.3 6.8,-2.5 10.8,-1 1.9,-5.2 3.6,-10.9 4.9,-15.9 4.1,-15.1 1.6,-29.9 -6.2,-37.8 0.6,14.1 -1.6,26.5 -4.8,37.9 0.8,6 -2.1,12.1 -4.7,16.7 z"
           id="path38" />
        <path
           d="m 201.2,46.2 c -3.6,10.8 -7.8,19.1 -17.1,29.1 -4,7.2 -5.2,10.3 -1.4,16.8 1.4,2.1 2.3,5.3 1,7.2 -7.9,9.3 -19.2,4.8 -22.6,-5.3 l 0.1,16.7 c 19.8,10.5 39.7,-7.7 30.9,-32.3 9,-11.5 13.5,-22.1 9,-32.2 z"
           id="path40" />
        <path
           d="m 192.2,78.4 0.1,0.4 c 2,-0.4 7,-2.4 12,1.2 3.8,-2.5 4.1,-7.6 4.7,-11.6 -3.3,-1.5 -7.5,-1.4 -10.7,0.9 -2.3,3.5 -4,5.7 -6.1,9.1 z"
           id="path42" />
        <path
           d="m 192.3,78.9 c 1.1,3 1.7,6.4 2.1,9.3 4.8,-1.3 7.2,-4.3 9.9,-8.2 -3.4,-2.3 -8.6,-2.9 -12,-1.1 z"
           id="path44" />
        <path
           d="m 210.2,65 c -2.1,9.5 -2.9,13.3 -5.9,15 3.1,-0.1 5.6,0.3 8,2 2.4,-2.2 4.8,-4.6 7,-6.7 10.4,-11.7 21.5,-23.5 18.2,-39.9 -8.2,10.9 -18.2,21.2 -27.3,29.7 z"
           id="path46" />
        <path
           style="fill:#ffcc00;stroke:#996600"
           d="m 153.4,25 c -1.5,0.3 -1,2.8 0.2,2.6 1.4,-0.3 1,-2.8 -0.2,-2.6 z"
           id="path48" />
        <path
           style="fill:#ffcc00;stroke:#996600"
           d="m 166.3,27.8 c 1.2,0.1 1.5,-2.7 0.2,-2.8 -1.3,-0.1 -1.7,2.6 -0.2,2.8 z"
           id="path50" />
        <path
           d="m 138.8,77.3 c -1.3,0.2 -2.6,-0.1 -3.8,-0.3 -1.3,4.3 -2.5,10 -2.5,14.3 l 17.6,-0.1 c -1.8,-2.5 -3,-6.1 -2.3,-10 -1.6,3.6 -5.2,7.3 -8.4,8.2 -1.8,-4.3 -1.1,-8.5 -0.6,-12 z"
           id="path52" />
        <path
           d="m 138.8,77.3 c 0,-4 1.3,-8.1 3,-11.4 -1.4,0.8 -2.3,0.6 -3.2,0.2 -1.2,5.4 -3.4,6.9 -6,8.1 1.6,3.3 3.5,3.1 6.2,3.1 z"
           id="path54" />
        <path
           d="m 138.8,77.3 c 4.3,-0.5 7,-4.1 9,-7.1 -1.1,-2.8 -0.9,-6 -0.1,-8.5 -1.5,3.3 -3.9,3.7 -6,4.3 -1.8,3.6 -2.9,7.4 -3,11.3 z"
           id="path56" />
        <path
           d="m 136.2,59.4 c -1.6,2.5 1.8,9.1 5.7,6.5 -0.7,-3.4 0.7,-6.4 1.2,-8.8 -0.6,0.1 -1,-0.1 -1.6,-0.3 -1.4,1.5 -4,3.9 -5.3,2.6 z"
           id="path58" />
        <path
           style="fill:#ffcc00"
           d="m 168,43.4 c -0.4,-0.2 -0.8,-0.4 -1.1,-0.7 -1,4.3 -5.1,3.5 -4.8,-0.1 -1.3,0.5 -2.6,0.9 -3.7,1 1.1,6.1 8.3,7.1 9.6,-0.2 z"
           id="path60" />
        <path
           d="m 143.2,57.1 c 0.2,-5.1 0.4,-7.5 2,-12.1 -3.5,5.7 -5,5.6 -7.5,4 -0.5,4.6 0.9,7.8 5.5,8.1 z"
           id="path62" />
        <path
           d="m 148.5,54.3 c -1.5,1.8 -3.2,2.4 -5.2,2.8 -1.2,2.7 -2,5.9 -1.5,8.8 2.6,-0.4 5.2,-2.1 5.8,-4.4 -0.5,-2.7 0.1,-5 1,-7.2 z"
           id="path64" />
        <path
           d="m 147.6,62.1 c -0.7,3.1 -0.7,5.4 0.2,8.1 2.8,-0.7 4.9,-2.4 5.6,-4.8 -0.8,-2.6 -0.9,-4.7 -0.2,-7 -1.4,2.1 -3.5,2.9 -5.7,3.7 z"
           id="path66" />
        <path
           d="m 153.2,66.2 c -1.3,2.2 -3.4,3.2 -5.5,4.1 -0.9,3.6 -0.8,7.5 0.1,10.9 2.9,-2.3 4.5,-5.2 6,-8.4 -0.8,-2.5 -1.2,-4.3 -0.6,-6.6 z"
           id="path68" />
        <path
           d="m 160.5,72.2 -0.2,-3.8 c -2.3,2 -4.2,3.3 -6.5,4.5 -0.9,2.9 0.3,7.2 2.1,9.5 1.9,-2 2.8,-3.9 3.7,-6.4 -0.1,-1.4 0.5,-2.6 0.9,-3.7 z"
           id="path70" />
        <path
           d="m 147.8,70.2 c -2.7,4.5 -5.2,6.3 -9,7.3 -0.8,4 -0.8,8.4 0.7,11.9 3.9,-1.6 6.5,-4.6 8.3,-8.1 -1.1,-4 -1,-7.5 0,-11.1 z"
           id="path72" />
        <path
           d="m 165.1,86.5 c -3.8,-2.4 -6.1,-5.1 -5.7,-9.9 -0.9,2.6 -1.8,4.1 -3.5,5.6 2.3,5 4.7,6.4 9.3,4.3 z"
           id="path74" />
        <path
           d="m 160.4,87.4 c -2.6,-1 -3.6,-2.6 -4.5,-5 -0.8,3.6 -2.3,6.7 -3.9,8.8 h 7.3 c 0.7,-0.5 1.1,-2.6 1.1,-3.8 z"
           id="path76" />
        <path
           d="m 156,82.4 c -2.2,-2.7 -2.6,-6.3 -2.3,-9.6 -1.4,3.7 -3.1,6.5 -5.9,8.6 -0.5,4 0.5,7.4 2.4,9.9 h 2.1 c 2.1,-2.5 2.9,-5.7 3.8,-8.8 z"
           id="path78" />
        <path
           d="m 166.4,112.8 c -1.8,-0.6 -3.1,-1.1 -5,-1.9 0.1,11.3 0,11.1 -0.1,21.2 0.4,0.9 0.5,1.1 1,2 l 5.7,-11.9 c -1.5,-3.5 -1.6,-6.2 -1.6,-9.4 z"
           id="path80" />
        <path
           d="m 166.4,112.8 c -0.3,7.5 2.3,13.5 9.7,18.5 1.9,-5.8 3.3,-12.1 1.9,-18.1 -3.9,0.8 -8.3,0.6 -11.5,-0.4 z"
           id="path82" />
        <path
           d="m 168,122.2 -5.7,12 c 1.6,3.9 8,9.8 11,11.7 0.8,-4.8 1.7,-9.7 2.6,-14.5 -4,-3.4 -5.7,-4.7 -7.9,-9.2 z"
           id="path84" />
        <path
           d="m 161.3,132 c -0.6,14.7 -0.5,14.7 -0.6,23.4 0.2,12.6 8.9,23.1 17.2,25.8 -3.4,-12.3 -5.2,-25.5 -6.2,-36.5 -3.7,-2.5 -8.8,-8.7 -10.4,-12.8 z"
           id="path86" />
        <path
           d="m 204.3,80 c -2.3,3.5 -6.1,7.8 -9.9,8.2 4.1,-0.3 8.2,-0.5 11.8,3.8 4.2,-0.7 6.8,-4.4 8.6,-7.7 -2.8,-3.4 -6.6,-4.7 -10.5,-4.3 z"
           id="path88" />
        <path
           d="m 213.5,82.8 c 0.5,0.4 0.8,0.9 1.2,1.4 -2.1,3.9 -4.9,6.7 -8.5,7.7 5,3.1 4.2,2.6 6.8,6.4 3.6,-1.3 7.5,-2.7 10.7,-4.1 11.9,-4.9 27.6,-14.5 28,-28.3 -12.9,7.2 -26.5,12.7 -38.2,16.9 z"
           id="path90" />
        <path
           d="m 206.1,92 c -2.6,-3.8 -8.1,-4.7 -11.7,-3.8 0,2.9 0,6.2 -0.9,8.8 4.6,-0.1 9.6,-1.3 12.6,-5 z"
           id="path92" />
        <path
           d="m 193.5,97 c 3.8,0.5 7.9,2.8 8.9,6.7 4.7,0.2 8.3,-1.5 10.9,-5 -1.6,-3.2 -4.4,-5.5 -7.1,-6.7 -3.5,3.9 -8,5 -12.7,5 z"
           id="path94" />
        <path
           d="m 202.4,103.7 c -1.5,-4.4 -5,-6 -8.9,-6.7 -0.6,2.2 -1.6,4.4 -2.7,6.3 4.3,1.8 8.2,2 11.6,0.5 z"
           id="path96" />
        <path
           d="m 202.7,103.7 c 3.3,4.3 3.3,4.9 6.1,10.4 -0.5,0.3 -1,0.7 -1.5,1 2.4,0.2 4.9,0.5 7.1,0.7 19.6,1.3 33.8,-0.9 40.4,-13.7 -15.1,1.3 -30.7,0.6 -43.3,-1.3 -2.4,2 -5.5,2.5 -8.8,2.9 z"
           id="path98" />
        <path
           d="m 202.5,103.7 c -4.1,1.8 -8.4,1.2 -11.6,-0.4 3.1,3.1 5,7.6 5.4,11.8 3.8,1.6 8.5,2.5 12.5,-1.1 -2,-4.3 -3.7,-7.1 -6.2,-10.3 z"
           id="path100" />
        <path
           d="m 178,113.2 v 0 l 0.1,0.5 c 1,5.5 4.3,10 10,12.7 0.7,-6.8 1.1,-10.4 -2.8,-16.7 -2.5,1.6 -4.6,2.8 -7.3,3.5 z"
           id="path102" />
        <path
           d="m 175.9,131.3 c 2.3,5 8.7,8.6 14.2,9.6 -0.7,-4.9 -1.4,-9.8 -2.1,-14.6 -4.7,-2.7 -8.3,-5.6 -10,-12.5 1.3,8.7 -0.6,13.2 -2.1,17.6 z"
           id="path104" />
        <path
           d="m 190.8,103.2 c -1.4,2.5 -3.6,4.8 -5.6,6.5 3.3,3.4 6.7,5.1 11,5.4 -0.6,-5.7 -2.4,-8.3 -5.4,-11.8 z"
           id="path106" />
        <path
           d="m 188,126.3 c 4,2.9 9,3 13,2.5 -1.6,-4.6 -3.2,-9.2 -4.8,-13.8 -4.2,-0.2 -8.5,-2 -11,-5.4 4.4,7 3.5,11.6 2.8,16.7 z"
           id="path108" />
        <path
           d="m 196.4,129 c 3.2,2 6.8,4.1 9.8,5.8 13.7,6.5 33.6,17 45.9,4.6 -18.1,-5.9 -35.2,-14.6 -48.9,-23.1 -2.4,0.3 -4.7,-0.1 -6.8,-1 2,6.1 2,6.1 4.2,13.4 -1.4,0.1 -2.9,0.2 -4.3,0.2 z"
           id="path110" />
        <path
           d="m 186.5,139.95 -1.25,-0.5 1.2,2.25 1.2,2.25 -0.6,-2 z"
           id="path112" />
        <path
           d="m 176,131.4 -2.2,11.8 c 8.2,26.7 17.5,52.1 35,52.8 -9,-17.6 -17.5,-37.3 -22.3,-56 -4.3,-1.5 -8.7,-4.3 -10.5,-8.6 z"
           id="path114" />
        <path
           d="M 174.2,193.3 C 173,184.3 170,182 162.3,181.2 l 2.4,4.4 c 4,0.2 7.1,3.8 9.5,7.8 z"
           id="path116" />
        <path
           d="m 170.3,203.6 c 0,3.2 0.5,7.1 2.6,9 0.5,-4.4 1.7,-6.8 2.2,-10 0.5,-3.6 0.6,-6.4 -0.8,-9.2 -0.8,4.6 -1.9,6.9 -3.9,10.3 z"
           id="path118" />
        <path
           d="m 172.8,212.6 c -1.9,-2.3 -2.4,-5.2 -2.6,-9 -0.3,4.9 -1.5,8.7 -3.3,12.7 1.3,5.7 5.7,6 9.3,4.5 -3.3,-0.1 -3.5,-4.9 -3.4,-8.2 z"
           id="path120" />
        <path
           style="fill:#ffcc00;stroke:#996600"
           d="m 209.8,221.5 c -1.1,-2.3 -3.1,-5.4 -5.3,-5.5 -1.8,0.1 -3,0.6 -3.8,1.8 -1.2,1.8 -1,4.4 0.5,5.4 0.5,-0.2 1.1,-0.1 1.5,0.1 0.5,-1.7 1.6,-3.6 3.3,-3.6 1.7,0 2.6,0.8 3.8,1.9 z"
           id="path122" />
        <path
           style="fill:#ffcc00;stroke:#996600"
           d="m 204,224.1 c -1.1,3 -0.5,5 1.7,7.2 0.7,-1.5 1.3,-2.6 2.9,-2.6 1.9,0.1 2.7,2.4 3.6,4.1 0,-6.6 -2.1,-10.4 -8.2,-8.7 z"
           id="path124" />
        <path
           d="m 170.3,203.6 c 2,-3 3.4,-6.6 3.9,-10.3 -3.6,-5.6 -5.5,-7 -9.5,-7.8 2.1,1.4 3.5,4.4 3,8.2 -0.5,3.5 -0.3,7.2 2.6,9.9 z"
           id="path126" />
        <path
           d="m 153.2,179.8 c -1.6,-1 -2.2,-3.3 -2.2,-5.2 -1.5,5.7 -2.8,9.3 -5.4,13.2 4.1,2.2 7.3,2 11.3,0.7 -0.4,-4.2 -1.9,-7.5 -3.8,-8.7 z"
           id="path128" />
        <path
           d="m 153.2,179.8 c 3.3,2.9 7.5,4.5 11.6,5.6 l -2.3,-4.2 c -3.3,-1.5 -6.1,-2.2 -9.3,-1.4 z"
           id="path130" />
        <path
           d="m 145.5,187.8 3.7,5.6 c 2.9,3 5.5,4.6 8.9,6.2 1.5,-5.3 0.8,-8.1 -1,-10.6 l -0.1,-0.6 c -4.5,1.6 -7.8,1.2 -11.5,-0.6 z"
           id="path132" />
        <path
           d="m 149.2,193.3 -3.7,-5.6 c -0.8,5.6 -2.6,10.1 -5.3,14.9 1.1,3.6 3.9,5.2 6.8,6.7 3,-6.8 3.5,-10.1 2.2,-16.1 z"
           id="path134" />
        <path
           d="m 145.5,187.8 c -2.2,-1.4 -4.6,-3.4 -5.5,-6.2 l -1.3,0.6 c -0.4,3.2 -1.4,7.1 -2.6,9.8 0.9,3.8 2.4,7.8 4.2,10.9 2.7,-5.5 4.3,-9.8 5.1,-15 z"
           id="path136" />
        <path
           d="m 140.1,181.6 c 1.4,3 2.9,4.7 5.4,6.2 2.6,-3.7 4.1,-7.7 5,-12 -6.6,3.5 -6.5,3.5 -10.4,5.8 z"
           id="path138" />
        <path
           d="m 167.4,195.4 c 0.6,-3.9 0.7,-7.7 -2.8,-10 -4,-1.2 -7.8,-2.5 -10.8,-5.1 1.9,2.2 3,5.1 3.1,8 2.6,3.7 7.1,5.6 10.5,7.1 z"
           id="path140" />
        <path
           d="m 158.2,199.5 c -3.7,-1.5 -6.6,-3.7 -9,-6.2 1.1,3.7 0.8,7 0.2,10.2 2.9,-0.3 5.3,2.8 7.1,4.8 z"
           id="path142" />
        <path
           d="m 167.4,195.4 c -3.9,-1.6 -7.4,-3.5 -10.2,-6.5 2.2,3.3 1.9,7.1 1,10.8 0.6,3.6 2.2,6 5.2,7.4 2,-4.1 3.3,-7.7 3.9,-11.7 z"
           id="path144" />
        <path
           d="m 138.8,182 c -3.2,0.6 -3.2,0.6 -7,1.4 0.6,4 2.6,6.3 4.3,8.4 1.5,-2.6 2.1,-6.7 2.7,-9.8 z"
           id="path146" />
        <path
           d="m 132,184 c -0.8,3.2 -1.8,5.1 -4.1,7.7 l 0.2,1.6 0.2,1.6 0.4,1.6 0.2,0.8 0.3,0.8 0.6,1.4 0.7,1.4 0.8,1.4 0.5,1.4 c 2.5,-2.7 3.9,-7.3 4.4,-11.6 -2.6,-3 -3.4,-5 -4.2,-8.1 z"
           id="path148" />
        <path
           d="m 131.9,203.8 c 0.4,5.6 2.3,8.6 4.9,11.1 2,-4 3.1,-8.1 3.5,-12.4 -2,-4 -3.4,-7 -4.2,-10.8 -0.4,6 -2.1,8.5 -4.2,12 z"
           id="path150" />
        <path
           d="m 131.8,224.5 h 0.1 c 2.4,-2.2 4.2,-5.2 4.9,-9.5 -2.9,-2.6 -4.2,-6.9 -4.9,-10.6 -0.9,3.8 -1.8,8.1 -4.9,10.5 0.3,4.5 2.5,7.6 4.8,9.6 z"
           id="path152" />
        <path
           d="m 136.9,215 c -0.9,4.3 -2.8,7.2 -5.1,9.5 1.2,4.9 3.3,7.1 5.6,9.2 3,-4.6 3.2,-8.4 2.5,-13.2 -1.9,-1.8 -2.5,-3.4 -3,-5.5 z"
           id="path154" />
        <path
           d="m 136.8,215 c 0.7,3.2 3.1,6.1 5.6,6.7 0,-6.5 2.3,-11.1 4.8,-12.2 -3.1,-1.3 -6,-3.9 -6.9,-7 -0.3,4.8 -1.8,9 -3.4,12.5 z"
           id="path156" />
        <path
           d="m 137.4,233.7 c 1.3,2.2 8.1,7.1 13.3,3.8 -5.6,-4.2 -7.8,-9.7 -8.3,-15.8 -0.9,-0.2 -1.8,-0.6 -2.5,-1.3 1.1,5.4 -0.3,9.6 -2.5,13.3 z"
           id="path158" />
        <path
           d="m 131.8,224.3 c -0.9,3.9 -2.7,7.3 -5.5,9.3 l 2.4,8.3 3.2,6.3 c 1,-2.1 2.1,-4.2 3.1,-6.3 l 2.4,-8.3 c -2.9,-2.4 -4.8,-5.4 -5.7,-9.3 z"
           id="path160" />
        <path
           d="m 137.4,233.6 1.8,8.1 -1.8,-8.1 -2.4,8.3 c 1,4.2 3.8,7.7 6.1,10.8 1.8,-5.5 2.1,-10.3 1.2,-15.2 -1.6,-0.7 -3,-1.9 -4.2,-3 z"
           id="path162" />
        <path
           d="m 135,242 c -0.8,1.6 -1.1,2.4 -3.2,6.3 v 6.4 c 1.4,5.9 5.4,10.5 8.8,14.4 0.8,-5.9 1.2,-11.1 0.4,-16.4 -3.2,-3.9 -4.9,-6.8 -6,-10.7 z"
           id="path164" />
        <path
           d="m 163.5,207.3 c -0.4,3.4 -0.2,5.2 -2.1,9.2 -1.4,3.8 0.7,8.1 3.8,10.4 1.3,-2.9 1.5,-7.3 1.6,-10.6 -1.9,-2.9 -2.8,-5.8 -3.3,-9 z"
           id="path166" />
        <path
           d="m 161.2,217.6 c 1.7,-3.6 2,-6.7 2.4,-10.2 -2.8,-1.7 -5.1,-4 -5.3,-7.8 l -1.7,8.8 c 0.7,3.5 2.6,6.8 4.6,9.2 z"
           id="path168" />
        <path
           d="m 166.8,216.3 c 2.4,-4.5 3,-8.3 3.5,-12.7 -2.7,-2.2 -2.9,-5.5 -2.8,-8.1 -1,4.2 -2,8.1 -3.9,11.2 0.3,3.4 1.6,7 3.2,9.6 z"
           id="path170" />
        <path
           d="m 156.5,208.3 -1.2,10.6 c -0.3,2.9 -1.8,5.4 -4,7 3.2,1 5.1,1.5 7.4,-1.9 1.2,-2 1.8,-4.5 2.3,-6.5 -2.2,-2.7 -3.9,-5.9 -4.5,-9.2 z"
           id="path172" />
        <path
           d="m 155.3,218.9 1.2,-10.6 c -2.6,-2.9 -4.4,-5.1 -7,-4.8 -0.8,2.4 -1.3,4 -2.3,6.2 4.7,-1.2 8.2,0 8.1,9.2 z"
           id="path174" />
        <path
           d="m 142.3,237.6 c 2.6,3.8 3.5,6.4 5,9.9 l 6.5,6.2 v 0 l 7,3.7 c -2.4,-9.8 -6.5,-14.1 -11.4,-19 -3,0.5 -4.1,0.2 -7.1,-0.8 z"
           id="path176" />
        <path
           d="m 142.2,237.3 c 1.4,7.8 -0.2,11.4 -0.9,15.4 0.5,4.9 3.1,8.9 7,11.5 1.3,-9.6 0.5,-16.9 -6.1,-26.9 z"
           id="path178" />
        <path
           d="m 141.1,252.7 c 0.8,6.1 0.1,11.1 -0.5,16.4 v 0 l 0.2,2.1 c 1.5,5.8 4,11.2 9,15.2 2.1,-9.5 1.9,-15.9 -1.6,-22.2 -3.8,-3.1 -5.5,-5.8 -7,-11.6 z"
           id="path180" />
        <path
           d="m 147.2,247.4 c 1.7,5.5 1.5,11.7 1,16.8 v 0 c 3.5,3.5 6.4,7.9 8.7,11.6 1.6,-6.9 1.5,-16.9 -3,-22.3 -2.7,-2.7 -3.8,-3.9 -6.7,-6.2 z"
           id="path182" />
        <path
           d="m 140.8,269.1 v 0 c -4.2,-4.9 -7.1,-8.9 -8.9,-14.4 v 30.8 -30.8 -0.1 c -1.6,5.6 -4.9,10.1 -8.9,14.6 -1.7,16 1.4,22.1 9.2,32.2 8,-10.5 10.8,-17 8.6,-32.2 z"
           id="path184" />
      </g>
      <path
         style="fill:#ffcc00;stroke:#996600"
         d="m 205.4,243 c -3.3,2.1 -2.9,5 -1.6,7.5 1.8,-2.1 5,0 5.8,1.9 1,-4.9 1.4,-7.4 -4.2,-9.4 z"
         id="path188" />
      <path
         style="fill:#ffcc00;stroke:#996600"
         d="m 184.7,259.4 c -2.1,-3.9 -4.5,-3.7 -6.3,-1.4 -1.5,5.9 2.5,8.4 7.6,9 -3.9,-2.4 -4.6,-6.2 -1.3,-7.7 z"
         id="path190" />
      <g
         style="fill:none;stroke:#666666"
         id="g244">
        <path
           d="m 219,65.2 c -4.5,4.9 -7.9,8.1 -12.4,12.43025"
           id="path192" />
        <path
           d="m 202.8,67.3 c 3.1,-5.4 4.8,-9.5 6.2,-14.6"
           id="path194" />
        <path
           d="m 192.3,78.8 c 3.9,-1.4 7.5,-3 10.4,-5.5"
           id="path196" />
        <path
           d="m 153.8,42.3 c 2.4,2.9 9.4,0.2 11.5,-1.273786"
           id="path198" />
        <path
           d="m 157.8,62.7 c -0.8,1.3 -2.3,2.1 -3.9,2.501"
           id="path200" />
        <path
           d="m 163.6,37.7 c 1.4,3.4 5.9,8.2 7.5,5.20625"
           id="path202" />
        <path
           d="m 164.7,138.1 c 0.3,3.2 0.9,6 1.4,9.13483"
           id="path204" />
        <path
           d="m 206.2,98.2 -7.301,-1.7"
           id="path206" />
        <path
           d="m 223.4,108.5 c -6.6,-0.1 -11.7,-0.4 -17.8,-0.95581"
           id="path208" />
        <path
           d="m 225,85.6 c -5.6,2.6 -11.6,4.9 -17,6.779029"
           id="path210" />
        <path
           d="m 196.9,87.3 c 4.4,-0.4 7.3,-1 11.2,-2.201"
           id="path212" />
        <path
           d="m 178.7,117.3 c 0.7,4.8 2.3,9 4,12.7625"
           id="path214" />
        <path
           d="m 200.7,110 c -2.9,-1 -6.3,-2.8 -8.6,-5.152"
           id="path216" />
        <path
           d="m 192.9,121.4 c -2.3,-2.5 -4.4,-5.5 -5.9,-8.35"
           id="path218" />
        <path
           d="m 207.2,153.1 c -7.3,-7 -13,-13.4 -18.2,-20.77422"
           id="path220" />
        <path
           d="m 199,122.6 c 7.3,4.3 14.9,8 21.9,11.02422"
           id="path222" />
        <path
           d="m 168,122.6 2.5,12.049"
           id="path224" />
        <path
           d="m 189.4,167 c -5.1,-10.7 -9.1,-22.5 -11.7,-32.58383"
           id="path226" />
        <path
           d="m 131.9,285.4 -0.1,-28.84965"
           id="path228" />
        <path
           d="m 144.1,238.4 6.1,6.9"
           id="path230" />
        <path
           d="M 136.9,255 135,242.51872"
           id="path232" />
        <path
           d="M 128.7,241.95"
           id="path234" />
        <path
           d="m 139.2,241.8 -1.801,-8.1"
           id="path236" />
        <path
           d="m 142.7,246.2 1.9,6.75"
           id="path238" />
        <path
           d="m 153.2,260.4 -5.4,-11.55"
           id="path240" />
        <path
           d="m 146,273.1 -4.201,-17.35"
           id="path242" />
      </g>
    </g>
    <use
       height="100%"
       width="100%"
       y="0"
       x="0"
       xlink:href="#right_part"
       transform="matrix(-1,0,0,1,263,0)"
       id="use247" />
    <path
       style="fill:#ffcc00;stroke:#996600;stroke-width:0.5"
       d="m 102,90 c -1,0 -2,1 -2,2 v 52 a 31.5,40 0 0 0 63,0 V 92 c 0,-1 -1,-2 -2,-2 z"
       id="path249" />
    <path
       style="fill:#1059d3"
       d="m 161.5,91.5 h -60 v 54 a 30,37 0 0 0 60,0 z"
       id="path251" />
    <path
       d="m 131.5,95.199997 -5.52482,8.288223 3.84796,5.7739 h -3.59497 v 7.53118 h 4.01663 v 19.58106 h -3.87542 c -0.29019,-5.24748 -1.55567,-9.99329 -3.57927,-13.61888 -2.22465,-3.98586 -5.42633,-6.74145 -9.16882,-6.94673 l 2.31427,3.18899 v 24.40572 c -1.38645,0 -2.51039,1.12394 -2.51039,2.51039 0,1.38645 1.12394,2.5104 2.51039,2.5104 1.38645,0 2.5104,-1.12395 2.5104,-2.5104 h 5.36203 l 6.43681,9.42771 v 8.14505 h -6.11124 c -0.44825,-0.77641 -1.27653,-1.25484 -2.17305,-1.2552 -1.38645,0 -2.5104,1.12394 -2.5104,2.51039 0,1.38645 1.12395,2.5104 2.5104,2.5104 0.89652,-3.7e-4 1.7248,-0.4788 2.17305,-1.2552 h 6.11124 v 8.11955 c -0.7764,0.44826 -1.25483,1.27654 -1.25519,2.17306 0,1.38645 1.12394,2.51039 2.51039,2.51039 1.38645,0 2.5104,-1.12394 2.5104,-2.51039 -3.7e-4,-0.89652 -0.4788,-1.7248 -1.2552,-2.17306 V 165.997 h 6.11124 c 0.44826,0.7764 1.27653,1.25483 2.17306,1.2552 1.38645,0 2.51039,-1.12395 2.51039,-2.5104 0,-1.38645 -1.12394,-2.51039 -2.51039,-2.51039 -0.89653,3.6e-4 -1.7248,0.47879 -2.17306,1.2552 h -6.11124 v -8.14505 l 6.43681,-9.42771 h 5.36204 c 0,1.38645 1.12394,2.5104 2.51039,2.5104 1.38645,0 2.51039,-1.12395 2.51039,-2.5104 0,-1.38645 -1.12394,-2.51039 -2.51039,-2.51039 v -24.40572 l 2.31427,-3.18899 c -3.74248,0.20528 -6.94417,2.96087 -9.16882,6.94673 -2.0236,3.62559 -3.28907,8.3714 -3.57927,13.61888 H 132.7552 V 116.7933 h 4.01663 v -7.53118 h -3.59496 l 3.84796,-5.7739 z m 0,4.52655 2.50844,3.761673 -2.50844,3.76166 -2.50844,-3.76166 z m -2.76143,12.045963 h 5.52287 v 2.5104 h -5.52287 z m -10.29261,9.19628 c 0.76878,0.8223 1.49337,1.82787 2.15344,3.01051 1.77124,3.17347 2.92845,7.54265 3.21645,12.39506 -1.38339,0.004 -2.50256,1.127 -2.50255,2.51039 0,1.38645 1.12394,2.5104 2.51039,2.5104 1.38645,0 2.51039,-1.12395 2.51039,-2.5104 h 3.91072 v 4.51871 h -11.79884 z m 26.10809,0 v 22.43467 H 132.7552 v -4.51871 h 3.91072 c 0,1.38645 1.12394,2.5104 2.51039,2.5104 1.38645,0 2.5104,-1.12395 2.5104,-2.5104 1e-5,-1.38339 -1.11917,-2.50607 -2.50255,-2.51039 0.28799,-4.85241 1.4452,-9.22159 3.21644,-12.39506 0.66007,-1.18264 1.38466,-2.18821 2.15345,-3.01051 z m -17.70612,24.94506 h 9.30414 L 131.5,152.72918 Z"
       style="color:#000000;font-style:normal;font-variant:normal;font-weight:normal;font-stretch:normal;font-size:medium;line-height:normal;font-family:sans-serif;font-variant-ligatures:normal;font-variant-position:normal;font-variant-caps:normal;font-variant-numeric:normal;font-variant-alternates:normal;font-variant-east-asian:normal;font-feature-settings:normal;font-variation-settings:normal;text-indent:0;text-align:start;text-decoration:none;text-decoration-line:none;text-decoration-style:solid;text-decoration-color:#000000;letter-spacing:normal;word-spacing:normal;text-transform:none;writing-mode:lr-tb;direction:ltr;text-orientation:mixed;dominant-baseline:auto;baseline-shift:baseline;text-anchor:start;white-space:normal;shape-padding:0;shape-margin:0;inline-size:0;clip-rule:nonzero;display:inline;overflow:visible;visibility:visible;opacity:1;isolation:auto;mix-blend-mode:normal;color-interpolation:sRGB;color-interpolation-filters:linearRGB;solid-color:#000000;solid-opacity:1;vector-effect:none;fill:#ffcc00;fill-opacity:1;fill-rule:nonzero;stroke:none;stroke-width:2.51039;stroke-linecap:butt;stroke-linejoin:miter;stroke-miterlimit:4;stroke-dasharray:none;stroke-dashoffset:0;stroke-opacity:1;color-rendering:auto;image-rendering:auto;shape-rendering:auto;text-rendering:auto;enable-background:accumulate;stop-color:#000000;stop-opacity:1"
       id="path1279-9"
       sodipodi:nodetypes="ccccccccscccssccccccscccccscccccsccccccsscccscccccccccccccccccccscssccccccccccsscsccccc" />
  </g>
  <path
     id="path141"
     d="m 354.44133,678.93129 c -2.99001,-4.48774 -5.71972,-8.60136 -6.06603,-9.14137 -0.61703,-0.96216 -0.608,-1.01128 0.451,-2.45129 0.59436,-0.8082 1.97957,-2.16297 3.07826,-3.0106 1.88463,-1.45398 1.99761,-1.63128 1.99761,-3.13477 0,-1.40864 -0.13684,-1.67706 -1.17896,-2.31245 -1.44671,-0.88208 -3.68644,-0.92903 -7.05125,-0.14781 -3.95596,0.91847 -5.57312,0.20044 -8.54744,-3.79509 l -1.45287,-1.95172 0.25355,-3.78519 0.25355,-3.7852 -1.31504,-1.24025 c -0.72327,-0.68213 -2.32649,-1.8298 -3.56271,-2.55038 -3.14961,-1.83587 -4.6056,-2.99608 -4.6056,-3.66999 0,-1.14885 2.56072,-5.86787 4.11675,-7.58657 l 1.59131,-1.75765 2.15572,0.44526 c 3.23877,0.66895 4.37283,0.57535 5.39334,-0.44515 0.62969,-0.62969 0.89186,-1.29354 0.89536,-2.26723 0.008,-2.18731 0.34592,-3.00924 1.23767,-3.00924 1.6231,0 2.15726,-0.80109 1.91244,-2.86817 -0.2526,-2.13283 -2.53111,-6.72296 -3.73277,-7.51978 -0.57093,-0.37858 -2.5491,-0.52544 -7.98065,-0.5925 -7.07355,-0.0873 -7.25504,-0.10878 -8.85442,-1.04638 -2.10511,-1.23407 -2.46273,-1.65167 -4.77835,-5.57981 -2.34094,-3.97108 -5.45012,-8.48454 -5.85563,-8.50033 -0.16271,-0.006 -1.46864,-0.5562 -2.90205,-1.22192 -2.96766,-1.37825 -4.63174,-2.90848 -5.93296,-5.45574 -1.49074,-2.91826 -2.27615,-3.49106 -4.78689,-3.49106 -4.1001,0 -10.50175,1.56603 -11.9617,2.92619 -0.65858,0.61355 -0.78319,1.13435 -0.78319,3.2733 0,2.45915 -0.0436,2.58359 -1.3116,3.74525 l -1.3116,1.20158 0.13264,2.67956 0.13264,2.67956 -1.88281,0.72551 c -1.63308,0.62929 -1.99099,0.9559 -2.69846,2.46244 -0.44862,0.9553 -1.43516,2.40794 -2.19232,3.22809 l -1.37664,1.49117 -3.18003,-0.32 c -1.74901,-0.176 -4.94682,-0.32271 -7.10625,-0.32603 l -3.92623,-0.006 -1.43546,1.63241 c -4.18073,4.75434 -3.63898,4.35308 -5.87732,4.35308 -1.74781,0 -2.21742,0.15537 -3.27423,1.08326 -0.67857,0.59579 -1.78612,1.89175 -2.46123,2.87992 -1.38914,2.0333 -2.17512,2.36518 -4.39091,1.85403 -2.73738,-0.63148 -3.36383,-0.48286 -5.42242,1.28646 l -1.93409,1.66232 -2.17654,-0.22975 c -1.1971,-0.12636 -3.9737,-0.70794 -6.17022,-1.29239 -8.84975,-2.35474 -9.54669,-2.3072 -12.00255,0.81872 -3.35335,4.26829 -6.07893,5.14401 -10.12228,3.25227 -1.19709,-0.56008 -3.48246,-1.39603 -5.07859,-1.85767 -1.59613,-0.46164 -4.91598,-1.58273 -7.37745,-2.4913 l -4.47539,-1.65195 -0.90173,1.1522 c -1.17246,1.49812 -3.69999,2.96556 -5.10792,2.96556 -0.86536,0 -1.50178,-0.41004 -2.87018,-1.84925 -2.21356,-2.3281 -3.02729,-2.6654 -4.72198,-1.95731 -0.71312,0.29796 -1.57098,0.54175 -1.90634,0.54175 -0.92455,0 -3.4175,-1.97659 -4.54503,-3.60363 -0.97259,-1.40344 -0.99069,-1.51675 -0.6004,-3.75797 0.22133,-1.27099 0.40243,-3.2269 0.40243,-4.34646 0,-1.69227 -0.13597,-2.1308 -0.80624,-2.60027 -1.07205,-0.7509 -2.92702,-0.69525 -5.36063,0.16081 -1.09734,0.386 -2.14533,0.70715 -2.32886,0.71367 -0.18353,0.007 -2.59133,-2.22519 -5.35066,-4.95934 -4.84112,-4.79693 -5.016,-5.02263 -4.9891,-6.43894 0.0153,-0.80726 0.22491,-2.12071 0.46573,-2.91878 l 0.43784,-1.45103 h 2.29975 c 2.19938,0 2.34588,-0.0567 3.3567,-1.29861 1.34898,-1.6574 2.82624,-5.82577 2.83613,-8.00266 0.008,-1.71599 -1.37297,-7.66455 -2.38793,-10.2876 -1.06137,-2.74296 -2.80283,-4.96167 -5.91403,-7.53479 -1.71448,-1.41795 -3.70716,-3.13002 -4.42817,-3.8046 -1.26653,-1.18494 -1.2995,-1.28022 -0.97295,-2.81131 0.91729,-4.30088 0.0567,-5.02655 -5.5613,-4.68927 -4.86693,0.29219 -5.39596,0.0663 -5.39407,-2.30339 0.001,-1.1706 0.34393,-2.39718 1.08691,-3.88687 1.53279,-3.0733 1.47246,-3.31644 -0.99759,-4.02036 -1.14721,-0.32693 -2.2337,-0.73237 -2.41441,-0.90097 -0.18071,-0.16859 -0.29919,-1.20535 -0.26329,-2.3039 0.062,-1.89854 0.009,-2.02648 -1.0726,-2.58578 -0.62582,-0.32363 -1.98487,-0.67583 -3.0201,-0.78267 -1.80887,-0.1867 -1.95213,-0.13378 -3.67491,1.35727 -2.75709,2.38624 -4.13402,2.87199 -8.14598,2.87369 -1.8954,7.2e-4 -4.99698,-0.23755 -6.89238,-0.52966 -4.34171,-0.66914 -8.02745,-0.68806 -9.53402,-0.0489 -0.642022,0.27235 -2.465866,1.6599 -4.052985,3.08343 -1.587124,1.42353 -3.081628,2.58824 -3.321127,2.58824 -0.239496,0 -1.629925,-0.73645 -3.089841,-1.63654 -3.311278,-2.04154 -6.040948,-3.0793 -8.099633,-3.0793 -2.304632,0 -2.697646,0.25368 -3.618341,2.33553 -0.999867,2.26088 -2.936663,4.55685 -3.843983,4.55685 -1.017548,0 -2.744906,-1.64922 -3.969936,-3.79035 -2.102217,-3.67428 -5.31374,-5.65747 -8.265,-5.10381 -0.685546,0.12861 -2.522456,0.79486 -4.082021,1.48057 -1.559565,0.68569 -3.258036,1.24672 -3.774384,1.24672 -1.078197,0 -2.393598,-1.15192 -2.381877,-2.08585 0.01172,-0.93398 1.116755,-3.2003 2.962676,-6.07618 3.010951,-4.69096 4.768589,-9.55694 6.124763,-16.9563 1.187209,-6.47748 1.113613,-6.63443 -5.105079,-10.88723 -4.666922,-3.19159 -5.601729,-3.62093 -11.691159,-5.36961 -6.003856,-1.72411 -9.531409,-3.325 -10.604697,-4.81269 -1.104647,-1.53115 -0.934461,-5.10705 0.546858,-11.49049 1.043772,-4.49792 1.222975,-5.9432 1.236921,-9.97582 0.02201,-6.3652 -0.489103,-7.47666 -5.936805,-12.90999 -3.707256,-3.69747 -4.063042,-3.95821 -5.401112,-3.95821 -0.787836,0 -2.126439,0.24486 -2.974673,0.54414 -3.275527,1.15567 -4.209313,0.77961 -7.073761,-2.84878 -0.857898,-1.08669 -1.403563,-1.41964 -2.577694,-1.57284 -1.9724179,-0.25737 -2.7831159,0.23807 -4.3194059,2.63968 -0.936078,1.46332 -1.452747,1.95609 -1.909009,1.82067 -0.344064,-0.10211 -1.064875,-0.29032 -1.601803,-0.41823 -0.862455,-0.20547 -1.041599,-0.51998 -1.537111,-2.69858 C 0.83466615,452.27155 0.51306715,444.67817 0.92741615,434.51969 1.2690531,426.14389 1.5004161,423.64303 2.2110851,420.64424 l 0.193428,-0.81621 H 274.48377 546.56305 l -0.88778,1.17896 c -0.48831,0.64843 -1.79456,2.79616 -2.90285,4.77272 -2.47738,4.41828 -2.41234,4.6837 1.29983,5.3042 3.98887,0.66676 6.89677,1.64192 11.8928,3.98824 5.63888,2.64823 6.92576,2.89321 9.56685,1.82127 2.61166,-1.05999 3.50194,-0.89675 4.32798,0.79356 0.97425,1.99364 0.57257,2.70332 -2.23731,3.95298 -2.69731,1.1996 -3.32136,1.81236 -3.32136,3.26123 0,0.70374 0.39138,1.31512 1.34506,2.10125 3.70114,3.05078 15.76669,7.2875 20.75369,7.2875 1.03273,0 1.67775,-0.23574 2.23313,-0.8162 0.77075,-0.80556 3.96243,-6.98013 5.15652,-9.97581 0.33802,-0.84795 0.73828,-1.54158 0.88955,-1.54141 0.92025,10e-4 7.18484,2.54683 7.26639,2.95288 0.0544,0.27115 -1.14548,2.69675 -2.66652,5.39022 -2.3108,4.09208 -3.25589,5.37433 -5.74839,7.79927 -3.18845,3.10201 -4.1992,4.75804 -4.1992,6.88007 0,1.11526 0.28817,1.60975 1.79133,3.07388 0.98524,0.95965 2.84514,2.51858 4.13314,3.46429 l 2.34181,1.71949 -1.09908,2.34873 -1.09911,2.34872 0.32147,4.77407 c 0.17677,2.62574 0.32144,6.59856 0.32144,8.82849 0,3.57632 -0.0912,4.17519 -0.77354,5.0786 -0.8054,1.06632 -1.14845,1.13564 -3.62006,0.73143 l -1.49155,-0.24393 -1.5559,3.53315 c -1.21879,2.76756 -1.63085,4.23418 -1.90168,6.76842 -0.27007,2.52701 -0.78178,4.35355 -2.33743,8.34341 -1.87676,4.81359 -2.00256,5.33822 -2.18158,9.09846 -0.10447,2.19468 -0.009,5.76128 0.21283,7.92578 l 0.4028,3.93545 1.88598,2.37015 c 2.22718,2.79891 4.36701,4.45061 5.76591,4.45061 1.46978,0 2.04283,0.79554 2.32513,3.22805 0.41136,3.54439 -0.24396,4.64159 -4.04028,6.76462 -1.2481,0.69798 -2.82512,1.79592 -3.50445,2.43988 l -1.23519,1.17083 -0.18682,6.61811 c -0.11757,4.16554 -0.34052,6.80336 -0.60163,7.11798 -0.22817,0.27492 -1.38751,0.8545 -2.57626,1.28795 -1.18876,0.43344 -2.39333,1.11919 -2.67679,1.52388 -0.64589,0.92217 -0.43857,3.02736 0.57936,5.88323 0.70321,1.97277 0.72595,2.37995 0.33454,5.98549 -0.76778,7.07203 -3.21436,14.58615 -6.63055,20.36417 -2.73014,4.61771 -3.21823,6.00337 -3.21823,9.13619 0,2.9865 -0.46078,4.19986 -2.57797,6.7887 -2.85015,3.48505 -3.96381,5.27081 -4.55347,7.30156 -0.31861,1.09734 -0.95819,2.74865 -1.42121,3.66958 -0.96541,1.91999 -2.49827,2.80957 -6.56543,3.81017 -5.35926,1.31848 -6.54051,2.55955 -8.07265,8.48155 l -0.61001,2.35792 -4.15164,1.18828 c -7.33067,2.09819 -8.45173,3.00682 -9.6028,7.78314 -0.34948,1.45024 -0.95735,3.51103 -1.35076,4.57954 -0.99667,2.70682 -2.26251,3.22977 -8.8689,3.66388 -4.04387,0.26573 -5.61736,0.53886 -8.18496,1.42073 -1.74827,0.60046 -3.62608,1.41033 -4.1729,1.79971 -0.54682,0.38937 -2.34983,1.23073 -4.00672,1.86969 -3.25263,1.25435 -5.87267,3.32271 -5.87267,4.63612 0,0.5339 -0.34368,0.85932 -1.17896,1.11641 -1.94402,0.59831 -5.85131,0.85115 -8.96119,0.57988 l -2.9256,-0.25521 -0.22182,-1.38722 c -0.30788,-1.92525 -1.13376,-2.52123 -4.00713,-2.89157 -4.28027,-0.55166 -4.40365,-0.52511 -5.04834,1.08612 -0.63791,1.5943 -0.81018,1.66134 -5.22649,2.034 -5.14165,0.43386 -22.32341,-1.13863 -25.45644,-2.32981 -1.48052,-0.56289 -2.49787,-2.36646 -3.45003,-6.11623 -1.34253,-5.28705 -1.87172,-6.1168 -4.37906,-6.86637 -1.1458,-0.34254 -3.10309,-0.63243 -4.34953,-0.64421 -2.2135,-0.0209 -2.29908,0.0145 -3.67636,1.5203 -0.77554,0.84795 -1.60197,1.54172 -1.83645,1.54172 -0.23453,0 -1.29461,0.82114 -2.35578,1.82475 l -1.92944,1.82475 -2.80777,-3.09275 c -3.40259,-3.74787 -4.08301,-4.02335 -9.02271,-3.65301 -3.4015,0.25503 -3.4899,0.28485 -4.16695,1.40634 -0.38046,0.63018 -0.90708,1.75794 -1.17022,2.50612 l -0.47851,1.36034 h -2.66855 c -5.79134,0 -7.66999,1.29674 -12.35039,8.52479 -1.67953,2.59371 -3.80303,5.48943 -4.71892,6.43493 -2.82969,2.92115 -5.33848,3.14468 -7.31307,0.65158 -1.24368,-1.5703 -2.5512,-2.05607 -3.73578,-1.38792 -0.55125,0.31092 -2.59139,0.4581 -6.40724,0.46223 l -5.59846,0.006 -0.4184,1.63803 c -0.23017,0.90091 -1.05953,2.79896 -1.84306,4.21789 l -1.42461,2.57986 -5.43637,-8.15953 z"
     style="fill:#009933;fill-opacity:1;stroke:#009933;stroke-width:1.5;stroke-miterlimit:4;stroke-dasharray:none;stroke-opacity:1" />
  <path
     id="path966"
     d="m 361.09085,213.81128 c 0,-68.925 0.11511,-100.76272 0.36432,-100.76272 0.20037,0 2.07477,-1.64877 4.16533,-3.66394 2.09055,-2.01517 4.11422,-3.76177 4.49703,-3.88132 0.38282,-0.11955 2.32203,-0.44315 4.30935,-0.71911 3.996,-0.55488 5.20256,-1.10453 11.41789,-5.201416 1.84446,-1.215793 5.26276,-3.123694 7.59621,-4.239784 5.1491,-2.462811 6.99873,-3.978285 8.35534,-6.845876 0.5573,-1.178004 1.01339,-2.33249 1.01355,-2.565521 1.5e-4,-0.23303 0.40411,-1.702052 0.89769,-3.264493 0.632,-2.000638 1.31315,-3.321167 2.30316,-4.465029 2.72235,-3.145423 3.06645,-4.821839 1.52841,-7.44629 -1.21998,-2.081748 -1.03431,-3.904209 0.68459,-6.719608 1.70996,-2.800754 1.85066,-3.610621 1.11806,-6.435198 -0.59542,-2.295676 -0.59472,-2.450214 0.017,-3.739273 0.44916,-0.946526 1.42683,-1.883245 3.30217,-3.163854 5.15159,-3.517849 6.72266,-5.350422 6.82495,-7.960954 0.0444,-1.133995 -0.36423,-2.103937 -2.17669,-5.16631 -3.00148,-5.07137 -3.95985,-7.760394 -3.99454,-11.208003 -0.025,-2.488577 0.0896,-2.94777 1.36321,-5.460724 1.23409,-2.434971 1.60365,-2.861489 3.28459,-3.790826 1.4664,-0.810727 2.48095,-1.084821 4.49349,-1.213978 3.28912,-0.211083 4.94717,0.213257 10.03713,2.568773 2.24919,1.040876 5.51953,2.315855 7.26742,2.833287 1.74789,0.517431 3.75024,1.113977 4.44968,1.325656 1.75057,0.529797 2.25905,0.234346 2.77632,-1.613148 0.51755,-1.848492 1.09839,-2.120283 3.54118,-1.657016 3.46742,0.657582 10.00707,3.646949 18.39697,8.409522 2.23622,1.269405 5.81595,3.087044 7.95495,4.039198 2.139,0.952154 5.95738,2.909154 8.48528,4.348888 10.30699,5.870199 21.75771,7.147909 30.75915,3.432208 0.97227,-0.401344 3.14015,-1.044616 4.8175,-1.429491 4.60681,-1.05705 5.63826,-0.736862 9.46692,2.938785 3.61455,3.470099 4.85547,4.173613 7.36177,4.173613 2.33162,0 4.27841,-1.214519 8.80014,-5.490033 3.48757,-3.297674 4.85788,-4.283816 9.4947,-6.832855 2.35571,-1.295021 4.17902,-2.704156 7.08845,-5.478272 3.53606,-3.37159 5.55706,-4.773933 7.84633,-5.444462 0.60095,-0.17602 1.14249,0.103062 2.33764,1.20471 1.82128,1.678805 3.23014,1.883356 4.3964,0.638307 0.40984,-0.437523 1.48604,-2.147837 2.39156,-3.800699 0.90553,-1.652862 1.91492,-3.283621 2.2431,-3.623908 0.40178,-0.4166 1.69102,-0.770162 3.94676,-1.082361 2.78681,-0.385699 3.67683,-0.674235 5.2935,-1.716092 2.66036,-1.714466 3.05165,-2.221886 5.47895,-7.1050034 1.77133,-3.563447 2.33492,-4.387795 3.41593,-4.996305 l 1.29462,-0.72876004 2.41769,0.74448004 c 1.32974,0.40947 3.5314,1.14681 4.89258,1.638534 1.36118,0.491727 4.54316,1.234478 7.07107,1.650559 2.5279,0.41608 6.50538,1.374657 8.83883,2.130171 6.91241,2.238063 7.77057,2.206165 14.29159,-0.531218 2.74465,-1.152148 5.20025,-1.097495 7.23664,0.161063 1.18623,0.733132 1.26183,0.867635 0.78425,1.395356 -1.22249,1.35084 -2.74262,5.5906674 -4.29092,11.9678944 -1.6121,6.640046 -1.70221,6.879312 -3.86121,10.253048 -1.21582,1.899891 -2.81715,4.804582 -3.55849,6.45487 l -1.34792,3.000523 0.46229,2.479555 c 1.06888,5.73319 0.88879,6.176096 -3.63418,8.937508 -4.87879,2.978652 -5.55172,4.315504 -5.55172,11.029112 0,3.36936 0.17828,5.157506 0.72068,7.228314 0.78099,2.981749 0.92096,4.888767 0.52906,7.208395 -0.25913,1.533775 0.0742,1.917522 0.85171,0.980637 0.36439,-0.439064 0.61691,-0.436433 1.89945,0.0198 0.81355,0.289394 2.83152,0.83825 4.48438,1.219681 1.65287,0.381435 3.4825,0.881692 4.06587,1.111685 1.71742,0.677105 6.82496,5.551195 8.68931,8.292143 0.94853,1.394531 2.5183,3.204763 3.48837,4.022737 1.19519,1.007796 1.96035,2.014013 2.37359,3.121342 1.26914,3.400851 1.15921,3.346542 7.6342,3.771803 l 3.44715,0.226402 0.002,1.646381 c 10e-4,0.90551 -0.34135,3.18844 -0.76101,5.07318 l -0.763,3.42679 -1.62549,0.6981 c -2.49559,1.07171 -7.13903,1.81747 -11.31666,1.81747 -3.81107,0 -4.62785,-0.24238 -4.62785,-1.3733 0,-0.28863 -0.33238,-1.2114 -0.73864,-2.05061 -0.86,-1.77652 -1.65115,-1.94436 -3.85808,-0.81846 -2.0789,1.06057 -2.29761,2.25624 -1.84306,10.076 0.36959,6.3581 0.28909,8.45954 -0.35501,9.26821 -0.1881,0.23615 -1.19209,0.99363 -2.23109,1.68328 -1.84179,1.22251 -2.7227,2.52441 -2.00935,2.96962 0.19478,0.12156 1.54914,2.00239 3.00969,4.17963 2.79836,4.17149 3.62947,6.43236 3.18661,8.6686 -0.35394,1.78723 -0.93351,2.0215 -5.03197,2.03402 -3.48244,0.0106 -3.79154,0.0728 -5.65686,1.13784 -1.08522,0.61963 -4.51871,2.01174 -7.62998,3.09359 -4.47677,1.55665 -5.72966,2.13294 -6.00586,2.76249 -0.32341,0.73717 -0.5743,0.79549 -3.42189,0.79549 -3.53619,0 -3.97067,0.25268 -4.62201,2.68798 -0.41477,1.55078 -0.41982,1.55464 -2.02186,1.54276 -0.88333,-0.006 -3.24371,-0.15956 -5.2453,-0.34001 -4.06977,-0.36693 -6.53926,-0.0607 -7.52023,0.93255 -0.35678,0.36124 -0.84311,1.39105 -1.08075,2.28846 -0.39312,1.48464 -0.36008,1.76975 0.36666,3.16403 0.72364,1.38833 0.74535,1.57139 0.23096,1.94752 -0.31227,0.22833 -1.55722,0.60981 -2.76656,0.84774 -4.17289,0.82096 -4.91265,1.64947 -5.75606,6.44657 -0.60923,3.46513 -1.00259,4.10584 -3.61037,5.88074 -3.79117,2.58034 -8.38004,8.24543 -9.68385,11.955 -1.49611,4.25671 -1.31701,7.27191 0.99434,16.74033 2.23453,9.15367 3.30089,10.68408 11.52963,16.54693 5.21499,3.7156 7.67723,5.95317 7.67723,6.97674 0,1.24097 -1.12881,3.05183 -3.40979,5.4701 l -2.42384,2.56971 0.014,2.5515 c 0.0195,3.55758 0.55983,4.31214 3.31099,4.6234 1.70962,0.19342 2.14039,0.37548 2.34294,0.99024 0.1365,0.41428 0.32655,4.29931 0.42232,8.6334 l 0.17414,7.88015 1.64417,0.83317 c 2.23163,1.13085 3.15616,1.96675 3.42281,3.09469 0.20893,0.88376 0.11774,0.97605 -1.31075,1.32664 -5.52262,1.35541 -6.66183,2.04647 -6.66183,4.04117 0,2.23357 1.08584,7.44293 1.6947,8.13045 0.33187,0.37474 1.786,1.61861 3.2314,2.76416 1.4454,1.14554 2.999,2.62877 3.45243,3.29606 l 0.82442,1.21324 -2.00317,2.39747 c -1.10174,1.31861 -2.11983,2.53019 -2.26243,2.6924 -0.14259,0.16221 -2.45137,-0.83216 -5.13061,-2.20971 -2.67925,-1.37755 -5.0656,-2.50463 -5.30301,-2.50463 -0.89234,0 -0.76394,1.50657 0.37582,4.40979 1.34794,3.43351 2.06706,6.33297 1.88641,7.60586 -0.0984,0.6935 -0.70498,1.17789 -2.87769,2.2981 -1.51414,0.78065 -2.9062,1.65802 -3.09346,1.9497 -0.2027,0.31572 -0.248,2.13992 -0.11195,4.50781 l 0.22853,3.97747 H 470.03718 361.09085 Z"
     style="fill:#009933;fill-opacity:1;stroke:#009933;stroke-width:1.5;stroke-miterlimit:4;stroke-dasharray:none;stroke-opacity:1" />
  <path
     sodipodi:nodetypes="csssssssssssssssssssssssssssscssssssssssssssssssssssscssssscsssssssssssssssssssssscccscsscsscsssssssssssssssssssssssscsssscsscccscssssssssssssssssssssssssscsssscssscc"
     id="path968"
     d="m 2.4045131,419.82803 c 0.107399,-0.35542 1.140281,-4.00161 1.902769,-6.845 1.230752,-4.58958 1.387763,-5.66711 1.399014,-9.60104 0.01064,-3.71917 -0.154227,-5.05432 -1.025945,-8.30859 -0.57124,-2.13254 -1.422865,-4.72444 -1.8925,-5.75978 -1.317526,-2.90459 -0.981576,-3.18868 3.419485,-2.89169 3.272508,0.22084 3.655414,0.17614 4.5444699,-0.53053 1.380439,-1.09725 1.520645,-2.42398 0.465812,-4.40785 -1.5583889,-2.93092 -1.003982,-5.42198 1.912841,-8.59476 1.780268,-1.93648 2.004915,-2.35936 2.004915,-3.77407 0,-0.87627 -0.34891,-2.6264 -0.775356,-3.88918 -0.710467,-2.10381 -0.72747,-2.36904 -0.203169,-3.16923 0.363269,-0.55442 1.219396,-1.03662 2.344758,-1.32067 1.487498,-0.37545 2.056393,-0.79757 3.537383,-2.62472 2.134562,-2.63349 2.657027,-2.99018 7.009203,-4.78527 2.797455,-1.15383 3.490557,-1.59977 3.84857,-2.4762 0.603753,-1.47801 2.31e-4,-3.97286 -1.37845,-5.69827 -0.599054,-0.74971 -1.08919,-1.56043 -1.08919,-1.8016 0,-0.24116 0.581601,-1.08225 1.292448,-1.86907 1.94516,-2.15306 1.810589,-3.50634 -0.728002,-7.32095 -1.111247,-1.66981 -2.095978,-3.56123 -2.18829,-4.20314 -0.09231,-0.64192 -0.327685,-2.54905 -0.52305,-4.23806 -0.439266,-3.79766 -1.10118,-4.64991 -4.088394,-5.26405 -3.766588,-0.77436 -4.458468,-1.07733 -4.705191,-2.06035 -0.391112,-1.55832 0.07157,-6.29184 0.71028,-7.26664 0.552522,-0.84325 0.752523,-0.89125 2.971478,-0.71313 2.256244,0.1811 2.411828,0.14099 3.013256,-0.7769 1.167603,-1.78199 -0.02365,-4.17565 -2.708951,-5.44325 -3.039461,-1.43479 -3.015895,-1.38603 -3.015895,-6.24119 v -4.31912 l -2.400261,-2.27015 c -1.320143,-1.24858 -2.40026,-2.41259 -2.40026,-2.58669 0,-0.1741 0.556581,-1.04667 1.236848,-1.93905 3.875981,-5.08453 2.950447,-6.97692 -3.412279,-6.97692 -2.6220479,0 -3.0598279,-0.10277 -4.0743769,-0.95646 -0.625176,-0.52605 -1.736718,-2.02942 -2.470095,-3.34082 -1.310607,-2.34358 -1.32165,-2.39761 -0.645686,-3.15913 0.378249,-0.42613 1.39259,-1.09016 2.254091,-1.47564 1.032099,-0.46181 1.642235,-1.00316 1.788801,-1.58712 0.299496,-1.19329 0.03424,-1.52734 -2.052422,-2.58473 -2.234753,-1.13243 -3.333734,-2.49567 -3.333734,-4.13533 0,-1.77548 0.817159,-3.14945 2.55846,-4.30179 0.824432,-0.54558 1.917506,-1.65498 2.429053,-2.46532 0.651053,-1.03133 1.188484,-1.47335 1.791397,-1.47335 0.4737219,0 1.1385039,-0.30629 1.4772939,-0.68065 0.576858,-0.63742 0.565485,-0.79481 -0.179062,-2.47798 -0.770038,-1.7408 -0.773373,-1.8094 -0.106032,-2.1812 0.378956,-0.21112 1.253807,-0.92805 1.944113,-1.59317 1.168168,-1.12554 1.24285,-1.33681 1.078213,-3.05022 -0.09729,-1.01251 -0.450378,-2.14313 -0.784642,-2.51248 -0.854165,-0.94385 -0.798272,-1.16713 0.946072,-3.7793 1.661549,-2.48819 1.810066,-3.30816 1.245245,-6.87499 -0.301432,-1.90354 -0.294862,-1.92222 0.941267,-2.67584 1.036914,-0.63215 1.863255,-0.75914 4.947679,-0.76028 5.544696,-0.002 6.394769,-0.96077 6.70476,-7.56154 0.209288,-4.45647 0.557535,-5.48943 2.191034,-6.49899 0.937046,-0.57912 1.249,-1.02967 1.249,-1.80388 0,-0.90161 -0.324832,-1.20264 -2.571743,-2.38336 -3.832995,-2.01418 -4.277413,-2.59977 -2.967319,-3.90986 0.592304,-0.59231 1.232097,-0.73882 3.23112,-0.73992 3.330739,-0.002 4.567274,-0.75463 5.562691,-3.38646 0.409092,-1.08162 1.086769,-2.71436 1.505949,-3.6283 1.022026,-2.22835 0.96016,-3.40421 -0.339439,-6.45159 -1.695478,-3.97567 -1.419386,-5.21281 1.344757,-6.02573 2.22972,-0.65575 3.268009,-1.64646 4.231223,-4.03737 0.472733,-1.17342 1.612417,-3.42744 2.532629,-5.00894 1.546347,-2.65759 1.846095,-2.95718 3.956245,-3.95418 2.746141,-1.29749 3.197542,-1.89082 4.374781,-5.75039 1.272503,-4.17189 1.605386,-4.40644 6.253966,-4.40644 3.498364,0 3.884968,-0.074 5.308312,-1.0159 2.984561,-1.97507 3.84895,-5.28326 2.857399,-10.93584 -0.33367,-1.90219 -0.556684,-3.49705 -0.49558,-3.54413 0.0611,-0.0471 1.101195,-0.27849 2.311314,-0.51422 1.210118,-0.23574 2.788751,-0.83403 3.508072,-1.32954 0.755812,-0.52064 2.273545,-1.05485 3.595682,-1.2656 2.670241,-0.42565 3.476411,-0.80098 4.491079,-2.09092 0.456407,-0.58023 1.266111,-1.0297 2.098248,-1.16473 0.991559,-0.16091 1.541709,-0.52685 2.050934,-1.3642 0.382745,-0.62937 0.61087,-1.41221 0.506949,-1.73964 -0.225181,-0.70948 0.392834,-1.28785 1.736463,-1.62508 1.254579,-0.31488 1.578016,-1.54761 0.858115,-3.27058 -1.050904,-2.51517 -0.856926,-2.89297 2.729587,-5.3163 l 3.280812,-2.21676 0.864821,1.84642 0.864821,1.84643 2.275676,-0.18267 c 4.657777,-0.37388 7.892017,-2.77117 7.895217,-5.8521 0.001,-1.13369 -0.29686,-1.61326 -2.00881,-3.23235 -2.40082,-2.2706 -3.255087,-2.63723 -6.144845,-2.63723 h -2.19862 l 0.242751,-1.01549 c 0.361838,-1.51365 0.845232,-2.36312 2.098038,-3.68688 l 1.13029,-1.1943 -1.174598,-1.6356 c -1.368876,-1.90612 -1.40676,-2.17891 -0.484506,-3.48885 0.379555,-0.5391 0.794567,-1.31748 0.922258,-1.72973 0.12769,-0.41226 0.689546,-0.94493 1.248578,-1.18373 0.559028,-0.23879 1.485814,-0.81544 2.059534,-1.28143 1.00702,-0.81795 1.30198,-0.84864 8.52478,-0.88709 4.11491,-0.0219 8.04906,-0.14485 8.74256,-0.27321 5.35054,-0.990379 20.07927,-1.366233 24.99993,-0.637959 4.38666,0.649239 7.91531,2.847509 14.17165,8.828599 1.9318,1.84681 3.96559,3.53016 4.51953,3.74077 1.81093,0.68851 5.1993,0.45946 7.31849,-0.49472 3.42852,-1.54372 4.40068,-2.93531 5.06224,-7.24631 0.57182,-3.72623 1.49389,-5.478333 4.20486,-7.989993 6.79493,-6.295363 10.40084,-7.888654 17.85348,-7.888654 1.88837,0 4.59732,-0.199591 6.0199,-0.443535 3.41216,-0.585121 16.22395,0.07853 26.41496,1.368287 4.06198,0.514079 11.6228,1.346803 16.80182,1.850498 5.17903,0.503695 11.30594,1.248524 13.61536,1.655175 5.40079,0.95099 7.13696,0.928324 14.07995,-0.183811 3.14804,-0.504255 7.0065,-0.918256 8.57437,-0.920002 1.56787,-0.0017 4.64205,-0.270353 6.83151,-0.596904 5.52559,-0.824123 8.58585,-0.568205 13.69917,1.145612 5.02528,1.684309 8.37468,3.713557 9.13568,5.534876 0.77419,1.852879 0.67104,5.696491 -0.22211,8.277351 l -0.75482,2.1811 1.32207,2.52857 c 1.54184,2.94886 2.59374,3.99645 4.62354,4.60459 1.60388,0.48054 1.18591,0.64205 9.04241,-3.49408 4.24666,-2.2357 7.56584,-2.93022 14.21692,-2.97482 l 5.7237,-0.0384 4.80052,1.98917 c 3.99024,1.65341 5.28357,2.01981 7.66237,2.17075 l 2.86185,0.18159 v 100.76347 100.76348 h 109.07849 c 87.02575,0 109.07502,0.0933 109.06136,0.46159 -0.0512,1.37702 0.21425,1.79199 1.48395,2.32007 2.15348,0.89568 4.1543,2.41981 4.1543,3.16457 0,0.37179 -0.76502,1.53736 -1.70005,2.59015 -1.592,1.79252 -1.6848,2.01037 -1.46047,3.42808 0.13176,0.83266 0.57617,2.44057 0.98762,3.57314 0.42307,1.16467 0.69659,2.68769 0.6296,3.50592 -0.11252,1.3743 -0.23855,1.50763 -2.51868,2.66435 -2.7733,1.4069 -7.76832,2.41938 -10.09801,2.04685 -2.15813,-0.3451 -3.2707,-1.63538 -4.44148,-5.15091 -1.14381,-3.43458 -2.11001,-4.53456 -4.36611,-4.97072 -3.02388,-0.58458 -3.01886,-0.58738 -4.64952,2.59305 -0.82695,1.61281 -1.61914,3.7034 -1.76046,4.64575 -0.2473,1.64932 -0.17762,1.82891 1.86371,4.80345 1.57804,2.29944 2.16865,3.51614 2.30834,4.75531 0.30532,2.7089 1.30778,3.22939 5.12378,2.66037 1.76778,-0.2636 1.94012,-0.21794 2.66751,0.70678 1.46873,1.86717 1.41356,3.17516 -0.28309,6.71103 -2.13904,4.45791 -1.9164,5.07775 3.0576,8.51264 0.95645,0.66049 1.83033,1.43892 1.94196,1.72984 0.112,0.29182 -0.49774,1.45707 -1.3601,2.59923 -1.89739,2.5131 -1.94565,3.47822 -0.33123,6.62586 0.65132,1.26988 1.11039,2.67111 1.03887,3.17101 -0.16019,1.11938 -1.78982,2.23598 -5.1212,3.50898 -1.40903,0.53841 -3.08496,1.4676 -3.72435,2.06487 -1.24714,1.16502 -1.23555,0.99411 -0.34871,5.1329 0.19583,0.91394 0.36329,2.75762 0.37212,4.09706 0.0233,3.51202 -0.6634,3.97607 -8.7385,5.90589 -6.88845,1.64623 -8.13489,2.45292 -6.7287,4.35487 0.67565,0.9139 0.77842,1.4029 0.58747,2.79598 -0.12729,0.92859 -0.54778,2.305 -0.93444,3.05866 l -0.70302,1.37031 1.61977,1.89595 c 0.89652,1.04937 1.61977,2.27595 1.61977,2.74699 0,0.46807 -0.51583,1.6549 -1.14629,2.6374 l -1.14633,1.78636 c -289.07945,0.66704 -342.99385,0.3068 -544.4037969,0.38276 z"
     style="fill:#ffffff;fill-opacity:1;stroke:#009933;stroke-width:1.5;stroke-miterlimit:4;stroke-dasharray:none;stroke-opacity:1" />
  <g
     id="g1218"
     transform="translate(70.880503,102.74452)">
    <g
       transform="translate(-0.4)"
       id="g1208">
      <path
         id="path970"
         d="m 169.5,227.6 c 0.3,-2.5 0.2,-4.8 -0.3,-7.2 -1.2,-4.7 -5,-4.2 -8,-2.9 -0.7,2 -1.2,4.2 -1.9,6 0.3,2.8 0.2,6.4 -0.7,9 -0.5,2.1 1.2,4.1 2.7,4.5 7.5,1.4 15,4.1 19.5,8.3 1.1,1.3 0.5,4 -1.1,5.9 -1.5,1.9 -2.5,4.8 -1.2,6.8 1.8,-3 5,-1.6 6.3,1.3 3.9,-2.6 2.9,-5.9 1.9,-10 -0.5,-2.1 0.5,-4.8 2.4,-5.2 3.4,-0.4 5.1,2.1 7.2,4.1 2,1.9 4.8,3.5 7.4,2.4 -1.3,-2.3 -1.3,-5.7 1.6,-7.5 -0.3,-1.8 -2.1,-2.7 -3.6,-2.4 -3,0.9 -7.3,0.7 -9.1,-1.2 -1.7,-1.9 4.6,-5.9 7.2,-5.6 2.6,0.4 5.3,0 5.8,-2.6 -2.3,-2.6 -2.3,-4 -1.7,-7 l -0.6,-0.4 c -2,-1.7 -4.1,0.9 -5.4,3.4 -1.5,2.4 -3.9,4.7 -6.1,6.1 -1.9,1.2 -1.9,1.1 0,0 2.5,-1.9 4.5,-3.8 6,-6.2 0.8,-1.7 1.9,-3.1 3.4,-4 -1.5,-1.3 -1.1,-3.9 -0.5,-5.4 -2.4,-2.1 -5.7,0 -5.6,3.2 -0.2,3.8 -2.6,7.4 -5.5,9.9 -1.1,1.8 -3.2,3.4 -5.5,4 -5.9,-1 -11.8,-4.4 -14.4,-7.4 z"
         style="fill:#ff0000;stroke:#990000" />
      <g
         id="g986"
         style="fill:none;stroke:#000000">
        <path
           id="path972"
           d="m 178.2,165.6 c -2.7,-6.8 -4.9,-14.3 -6.3,-20.7" />
        <path
           id="path974"
           d="m 209,69 c 4.4,-8 7.6,-14.2 11.3,-21.85" />
        <path
           id="path976"
           d="m 217.2,146.4 c -8.4,-6.3 -15.5,-11.3 -22.8,-17.65" />
        <path
           id="path978"
           d="m 234.1,97.9 c -7.5,1.1 -15.8,1.9 -22.1,2.4" />
        <path
           id="path980"
           d="m 228.4,123.8 c -9.2,-2.6 -15.4,-4.6 -23.9,-7.5" />
        <path
           id="path982"
           d="M 198.2,160.8 C 192.7,153 189,146.7 185.3,139.45" />
        <path
           id="path984"
           d="m 231.4,71.4 c -5.9,4.1 -12.3,8 -18,11.4" />
      </g>
      <path
         id="path988"
         d="m 169.9,27.8 c -0.6,1.9 -2.9,1.5 -3.1,-0.2 -0.4,0.2 -0.8,0.1 -1.2,-0.2 -1.4,2 -3.9,1.4 -4,-1.6 0,-3 3,-4 4.4,-2.3 0.5,-1.8 -0.6,-3.2 -2.4,-3.3 -0.7,0 -1.4,0.6 -1.6,1 0.1,-2 -0.8,-3.3 -1.9,-5.2 -1.1,1.8 -2,3.1 -2,5.2 -0.1,-0.4 -0.6,-1 -1.6,-1 -1.9,0.1 -3,1.5 -2.4,3.3 1.5,-2.1 4.5,0 4.4,2.3 0,2.4 -2.9,3.5 -4.2,1.5 -0.3,0.3 -0.6,0.3 -1,0.2 -0.6,1.6 -2.6,2.8 -3.2,0.2 -0.2,-1.6 0,-4.3 2,-3.8 -0.3,-1.1 -1.2,-2.3 -2.4,-2.2 -1,0.2 -1.7,1.2 -1.7,2.2 -0.7,-1.7 -1.7,-2.7 -3.3,-2.6 2.1,3.7 3.2,7.2 3.8,10.9 7.7,-2.2 15.7,-2.2 23.2,0 0.4,-4.3 1.7,-7.3 3.8,-10.9 -1.5,-0.1 -2.7,0.8 -3.1,2.6 -0.2,-1.3 -1,-2.2 -2,-2.2 -1.2,0.1 -2.1,0.9 -2.3,2.2 1.8,-0.1 2.6,2.2 2,3.9 z"
         style="fill:#ffcc00;stroke:#996600" />
      <path
         id="path990"
         d="m 171.6,37.6 v -5.2 c -7.6,-2.2 -16.1,-2.2 -23.1,0 v 5.2 c 8.8,-2.2 14.6,-2.5 22.8,-0.1 z"
         style="fill:#ffcc00;stroke:#996600" />
      <path
         id="path992"
         d="m 187,53.6 c -0.4,0.1 -0.9,0.3 -1.2,1 -1.2,2.6 -6.2,5.2 -7.5,2.6 -0.5,-1.1 -1,-1.5 -1.8,-2.2 -1.4,-1.1 -3.2,-1.6 -5,-1.6 -2.9,-0.1 -4.8,2.4 -5.4,4.8 0.8,-0.364766 1.7,-0.7 2.5,-1 2.5,-2.9 6.3,0.6 7.9,2.9 3.5,5.5 10.2,-0.8 10.4,-6.6 z"
         style="fill:#ff0000;stroke:#990000" />
      <path
         id="path994"
         d="m 172.2,40.6 c 0,-1.2 -0.2,-2.2 -0.9,-3.1 -6.6,-2.2 -14.7,-2.5 -21.9,0 -2.2,0.9 -4.8,1.4 -7,0.3 -0.3,3 2,3.6 3.9,4 -1.9,5 -2.8,9.8 -2.8,15.5 v 0 c 3.1,-0.4 5,-3.4 6.6,-5.5 -2.3,3.5 -3,6.3 -2.5,9.7 2.7,-0.7 4.9,-2.2 6.4,-5 -1.1,2.5 -1.6,6.6 -0.5,8.8 -1,2.5 -0.7,5.2 0.2,7.6 2.9,-1.3 4.7,-2.6 6.6,-4.6 l 0.1,4 c 0.1,3.8 0.4,5.7 2.9,6.2 -1.8,-6.9 -1,-11.6 3.5,-14.2 -3.6,-3.6 -3.5,-9.1 0.3,-12.8 3.2,-3.1 4.7,-4.6 4,-8.5 0.5,-0.9 0.7,-1.5 1,-2.3 z"
         style="fill:#000000;stroke:#666666" />
      <path
         id="path996"
         d="m 176.5,43.4 c -0.3,-2.2 -2.5,-2.7 -4.3,-2.8 -0.4,0.9 -0.8,1.7 -1,2.3 0.3,1.7 0.3,2.6 -0.3,4.2 -0.7,1.5 -2.2,3 -3.6,4.3 -4.9,4.6 -3.6,9.2 -0.2,13.1 2.2,-3.3 6.4,-4 9.3,-0.8 -0.1,-5.2 -5.5,-8.4 -10,-5.4 0.2,-2.4 1.6,-4.4 4.2,-4.8 1.5,-1.4 3.8,-1.5 5,-0.8 2.8,-1.7 6,-0.6 7,1.8 1.6,-4.9 0.9,-9.4 -6,-11.1 z"
         style="fill:#ffcc00;stroke:#996600" />
      <g
         id="g1148"
         style="fill:#000000;stroke:#666666">
        <path
           id="path998"
           d="m 187.4,126.3 c 1.3,7.9 1.7,10 2.4,14.6 -1.3,-0.3 -2.4,-0.6 -3.6,-1 2.4,3.2 5,6.5 7.4,9.2 12.7,16.1 29.3,28.1 41,22.3 -14.6,-12.7 -29.5,-27.6 -39.4,-42.3 -3.2,-0.7 -5,-1.2 -7.8,-2.7 z" />
        <path
           id="path1000"
           d="m 198.2,69.4 c 4.1,-2.3 6.8,-2.5 10.8,-1 1.9,-5.2 3.6,-10.9 4.9,-15.9 4.1,-15.1 1.6,-29.9 -6.2,-37.8 0.6,14.1 -1.6,26.5 -4.8,37.9 0.8,6 -2.1,12.1 -4.7,16.7 z" />
        <path
           id="path1002"
           d="m 201.2,46.2 c -3.6,10.8 -7.8,19.1 -17.1,29.1 -4,7.2 -5.2,10.3 -1.4,16.8 1.4,2.1 2.3,5.3 1,7.2 -7.9,9.3 -19.2,4.8 -22.6,-5.3 l 0.1,16.7 c 19.8,10.5 39.7,-7.7 30.9,-32.3 9,-11.5 13.5,-22.1 9,-32.2 z" />
        <path
           id="path1004"
           d="m 192.2,78.4 0.1,0.4 c 2,-0.4 7,-2.4 12,1.2 3.8,-2.5 4.1,-7.6 4.7,-11.6 -3.3,-1.5 -7.5,-1.4 -10.7,0.9 -2.3,3.5 -4,5.7 -6.1,9.1 z" />
        <path
           id="path1006"
           d="m 192.3,78.9 c 1.1,3 1.7,6.4 2.1,9.3 4.8,-1.3 7.2,-4.3 9.9,-8.2 -3.4,-2.3 -8.6,-2.9 -12,-1.1 z" />
        <path
           id="path1008"
           d="m 210.2,65 c -2.1,9.5 -2.9,13.3 -5.9,15 3.1,-0.1 5.6,0.3 8,2 2.4,-2.2 4.8,-4.6 7,-6.7 10.4,-11.7 21.5,-23.5 18.2,-39.9 -8.2,10.9 -18.2,21.2 -27.3,29.7 z" />
        <path
           id="path1010"
           d="m 153.4,25 c -1.5,0.3 -1,2.8 0.2,2.6 1.4,-0.3 1,-2.8 -0.2,-2.6 z"
           style="fill:#ffcc00;stroke:#996600" />
        <path
           id="path1012"
           d="m 166.3,27.8 c 1.2,0.1 1.5,-2.7 0.2,-2.8 -1.3,-0.1 -1.7,2.6 -0.2,2.8 z"
           style="fill:#ffcc00;stroke:#996600" />
        <path
           id="path1014"
           d="m 138.8,77.3 c -1.3,0.2 -2.6,-0.1 -3.8,-0.3 -1.3,4.3 -2.5,10 -2.5,14.3 l 17.6,-0.1 c -1.8,-2.5 -3,-6.1 -2.3,-10 -1.6,3.6 -5.2,7.3 -8.4,8.2 -1.8,-4.3 -1.1,-8.5 -0.6,-12 z" />
        <path
           id="path1016"
           d="m 138.8,77.3 c 0,-4 1.3,-8.1 3,-11.4 -1.4,0.8 -2.3,0.6 -3.2,0.2 -1.2,5.4 -3.4,6.9 -6,8.1 1.6,3.3 3.5,3.1 6.2,3.1 z" />
        <path
           id="path1018"
           d="m 138.8,77.3 c 4.3,-0.5 7,-4.1 9,-7.1 -1.1,-2.8 -0.9,-6 -0.1,-8.5 -1.5,3.3 -3.9,3.7 -6,4.3 -1.8,3.6 -2.9,7.4 -3,11.3 z" />
        <path
           id="path1020"
           d="m 136.2,59.4 c -1.6,2.5 1.8,9.1 5.7,6.5 -0.7,-3.4 0.7,-6.4 1.2,-8.8 -0.6,0.1 -1,-0.1 -1.6,-0.3 -1.4,1.5 -4,3.9 -5.3,2.6 z" />
        <path
           id="path1022"
           d="m 168,43.4 c -0.4,-0.2 -0.8,-0.4 -1.1,-0.7 -1,4.3 -5.1,3.5 -4.8,-0.1 -1.3,0.5 -2.6,0.9 -3.7,1 1.1,6.1 8.3,7.1 9.6,-0.2 z"
           style="fill:#ffcc00" />
        <path
           id="path1024"
           d="m 143.2,57.1 c 0.2,-5.1 0.4,-7.5 2,-12.1 -3.5,5.7 -5,5.6 -7.5,4 -0.5,4.6 0.9,7.8 5.5,8.1 z" />
        <path
           id="path1026"
           d="m 148.5,54.3 c -1.5,1.8 -3.2,2.4 -5.2,2.8 -1.2,2.7 -2,5.9 -1.5,8.8 2.6,-0.4 5.2,-2.1 5.8,-4.4 -0.5,-2.7 0.1,-5 1,-7.2 z" />
        <path
           id="path1028"
           d="m 147.6,62.1 c -0.7,3.1 -0.7,5.4 0.2,8.1 2.8,-0.7 4.9,-2.4 5.6,-4.8 -0.8,-2.6 -0.9,-4.7 -0.2,-7 -1.4,2.1 -3.5,2.9 -5.7,3.7 z" />
        <path
           id="path1030"
           d="m 153.2,66.2 c -1.3,2.2 -3.4,3.2 -5.5,4.1 -0.9,3.6 -0.8,7.5 0.1,10.9 2.9,-2.3 4.5,-5.2 6,-8.4 -0.8,-2.5 -1.2,-4.3 -0.6,-6.6 z" />
        <path
           id="path1032"
           d="m 160.5,72.2 -0.2,-3.8 c -2.3,2 -4.2,3.3 -6.5,4.5 -0.9,2.9 0.3,7.2 2.1,9.5 1.9,-2 2.8,-3.9 3.7,-6.4 -0.1,-1.4 0.5,-2.6 0.9,-3.7 z" />
        <path
           id="path1034"
           d="m 147.8,70.2 c -2.7,4.5 -5.2,6.3 -9,7.3 -0.8,4 -0.8,8.4 0.7,11.9 3.9,-1.6 6.5,-4.6 8.3,-8.1 -1.1,-4 -1,-7.5 0,-11.1 z" />
        <path
           id="path1036"
           d="m 165.1,86.5 c -3.8,-2.4 -6.1,-5.1 -5.7,-9.9 -0.9,2.6 -1.8,4.1 -3.5,5.6 2.3,5 4.7,6.4 9.3,4.3 z" />
        <path
           id="path1038"
           d="m 160.4,87.4 c -2.6,-1 -3.6,-2.6 -4.5,-5 -0.8,3.6 -2.3,6.7 -3.9,8.8 h 7.3 c 0.7,-0.5 1.1,-2.6 1.1,-3.8 z" />
        <path
           id="path1040"
           d="m 156,82.4 c -2.2,-2.7 -2.6,-6.3 -2.3,-9.6 -1.4,3.7 -3.1,6.5 -5.9,8.6 -0.5,4 0.5,7.4 2.4,9.9 h 2.1 c 2.1,-2.5 2.9,-5.7 3.8,-8.8 z" />
        <path
           id="path1042"
           d="m 166.4,112.8 c -1.8,-0.6 -3.1,-1.1 -5,-1.9 0.1,11.3 0,11.1 -0.1,21.2 0.4,0.9 0.5,1.1 1,2 l 5.7,-11.9 c -1.5,-3.5 -1.6,-6.2 -1.6,-9.4 z" />
        <path
           id="path1044"
           d="m 166.4,112.8 c -0.3,7.5 2.3,13.5 9.7,18.5 1.9,-5.8 3.3,-12.1 1.9,-18.1 -3.9,0.8 -8.3,0.6 -11.5,-0.4 z" />
        <path
           id="path1046"
           d="m 168,122.2 -5.7,12 c 1.6,3.9 8,9.8 11,11.7 0.8,-4.8 1.7,-9.7 2.6,-14.5 -4,-3.4 -5.7,-4.7 -7.9,-9.2 z" />
        <path
           id="path1048"
           d="m 161.3,132 c -0.6,14.7 -0.5,14.7 -0.6,23.4 0.2,12.6 8.9,23.1 17.2,25.8 -3.4,-12.3 -5.2,-25.5 -6.2,-36.5 -3.7,-2.5 -8.8,-8.7 -10.4,-12.8 z" />
        <path
           id="path1050"
           d="m 204.3,80 c -2.3,3.5 -6.1,7.8 -9.9,8.2 4.1,-0.3 8.2,-0.5 11.8,3.8 4.2,-0.7 6.8,-4.4 8.6,-7.7 -2.8,-3.4 -6.6,-4.7 -10.5,-4.3 z" />
        <path
           id="path1052"
           d="m 213.5,82.8 c 0.5,0.4 0.8,0.9 1.2,1.4 -2.1,3.9 -4.9,6.7 -8.5,7.7 5,3.1 4.2,2.6 6.8,6.4 3.6,-1.3 7.5,-2.7 10.7,-4.1 11.9,-4.9 27.6,-14.5 28,-28.3 -12.9,7.2 -26.5,12.7 -38.2,16.9 z" />
        <path
           id="path1054"
           d="m 206.1,92 c -2.6,-3.8 -8.1,-4.7 -11.7,-3.8 0,2.9 0,6.2 -0.9,8.8 4.6,-0.1 9.6,-1.3 12.6,-5 z" />
        <path
           id="path1056"
           d="m 193.5,97 c 3.8,0.5 7.9,2.8 8.9,6.7 4.7,0.2 8.3,-1.5 10.9,-5 -1.6,-3.2 -4.4,-5.5 -7.1,-6.7 -3.5,3.9 -8,5 -12.7,5 z" />
        <path
           id="path1058"
           d="m 202.4,103.7 c -1.5,-4.4 -5,-6 -8.9,-6.7 -0.6,2.2 -1.6,4.4 -2.7,6.3 4.3,1.8 8.2,2 11.6,0.5 z" />
        <path
           id="path1060"
           d="m 202.7,103.7 c 3.3,4.3 3.3,4.9 6.1,10.4 -0.5,0.3 -1,0.7 -1.5,1 2.4,0.2 4.9,0.5 7.1,0.7 19.6,1.3 33.8,-0.9 40.4,-13.7 -15.1,1.3 -30.7,0.6 -43.3,-1.3 -2.4,2 -5.5,2.5 -8.8,2.9 z" />
        <path
           id="path1062"
           d="m 202.5,103.7 c -4.1,1.8 -8.4,1.2 -11.6,-0.4 3.1,3.1 5,7.6 5.4,11.8 3.8,1.6 8.5,2.5 12.5,-1.1 -2,-4.3 -3.7,-7.1 -6.2,-10.3 z" />
        <path
           id="path1064"
           d="m 178,113.2 v 0 l 0.1,0.5 c 1,5.5 4.3,10 10,12.7 0.7,-6.8 1.1,-10.4 -2.8,-16.7 -2.5,1.6 -4.6,2.8 -7.3,3.5 z" />
        <path
           id="path1066"
           d="m 175.9,131.3 c 2.3,5 8.7,8.6 14.2,9.6 -0.7,-4.9 -1.4,-9.8 -2.1,-14.6 -4.7,-2.7 -8.3,-5.6 -10,-12.5 1.3,8.7 -0.6,13.2 -2.1,17.6 z" />
        <path
           id="path1068"
           d="m 190.8,103.2 c -1.4,2.5 -3.6,4.8 -5.6,6.5 3.3,3.4 6.7,5.1 11,5.4 -0.6,-5.7 -2.4,-8.3 -5.4,-11.8 z" />
        <path
           id="path1070"
           d="m 188,126.3 c 4,2.9 9,3 13,2.5 -1.6,-4.6 -3.2,-9.2 -4.8,-13.8 -4.2,-0.2 -8.5,-2 -11,-5.4 4.4,7 3.5,11.6 2.8,16.7 z" />
        <path
           id="path1072"
           d="m 196.4,129 c 3.2,2 6.8,4.1 9.8,5.8 13.7,6.5 33.6,17 45.9,4.6 -18.1,-5.9 -35.2,-14.6 -48.9,-23.1 -2.4,0.3 -4.7,-0.1 -6.8,-1 2,6.1 2,6.1 4.2,13.4 -1.4,0.1 -2.9,0.2 -4.3,0.2 z" />
        <path
           id="path1074"
           d="m 186.5,139.95 -1.25,-0.5 1.2,2.25 1.2,2.25 -0.6,-2 z" />
        <path
           id="path1076"
           d="m 176,131.4 -2.2,11.8 c 8.2,26.7 17.5,52.1 35,52.8 -9,-17.6 -17.5,-37.3 -22.3,-56 -4.3,-1.5 -8.7,-4.3 -10.5,-8.6 z" />
        <path
           id="path1078"
           d="M 174.2,193.3 C 173,184.3 170,182 162.3,181.2 l 2.4,4.4 c 4,0.2 7.1,3.8 9.5,7.8 z" />
        <path
           id="path1080"
           d="m 170.3,203.6 c 0,3.2 0.5,7.1 2.6,9 0.5,-4.4 1.7,-6.8 2.2,-10 0.5,-3.6 0.6,-6.4 -0.8,-9.2 -0.8,4.6 -1.9,6.9 -3.9,10.3 z" />
        <path
           id="path1082"
           d="m 172.8,212.6 c -1.9,-2.3 -2.4,-5.2 -2.6,-9 -0.3,4.9 -1.5,8.7 -3.3,12.7 1.3,5.7 5.7,6 9.3,4.5 -3.3,-0.1 -3.5,-4.9 -3.4,-8.2 z" />
        <path
           id="path1084"
           d="m 209.8,221.5 c -1.1,-2.3 -3.1,-5.4 -5.3,-5.5 -1.8,0.1 -3,0.6 -3.8,1.8 -1.2,1.8 -1,4.4 0.5,5.4 0.5,-0.2 1.1,-0.1 1.5,0.1 0.5,-1.7 1.6,-3.6 3.3,-3.6 1.7,0 2.6,0.8 3.8,1.9 z"
           style="fill:#ffcc00;stroke:#996600" />
        <path
           id="path1086"
           d="m 204,224.1 c -1.1,3 -0.5,5 1.7,7.2 0.7,-1.5 1.3,-2.6 2.9,-2.6 1.9,0.1 2.7,2.4 3.6,4.1 0,-6.6 -2.1,-10.4 -8.2,-8.7 z"
           style="fill:#ffcc00;stroke:#996600" />
        <path
           id="path1088"
           d="m 170.3,203.6 c 2,-3 3.4,-6.6 3.9,-10.3 -3.6,-5.6 -5.5,-7 -9.5,-7.8 2.1,1.4 3.5,4.4 3,8.2 -0.5,3.5 -0.3,7.2 2.6,9.9 z" />
        <path
           id="path1090"
           d="m 153.2,179.8 c -1.6,-1 -2.2,-3.3 -2.2,-5.2 -1.5,5.7 -2.8,9.3 -5.4,13.2 4.1,2.2 7.3,2 11.3,0.7 -0.4,-4.2 -1.9,-7.5 -3.8,-8.7 z" />
        <path
           id="path1092"
           d="m 153.2,179.8 c 3.3,2.9 7.5,4.5 11.6,5.6 l -2.3,-4.2 c -3.3,-1.5 -6.1,-2.2 -9.3,-1.4 z" />
        <path
           id="path1094"
           d="m 145.5,187.8 3.7,5.6 c 2.9,3 5.5,4.6 8.9,6.2 1.5,-5.3 0.8,-8.1 -1,-10.6 l -0.1,-0.6 c -4.5,1.6 -7.8,1.2 -11.5,-0.6 z" />
        <path
           id="path1096"
           d="m 149.2,193.3 -3.7,-5.6 c -0.8,5.6 -2.6,10.1 -5.3,14.9 1.1,3.6 3.9,5.2 6.8,6.7 3,-6.8 3.5,-10.1 2.2,-16.1 z" />
        <path
           id="path1098"
           d="m 145.5,187.8 c -2.2,-1.4 -4.6,-3.4 -5.5,-6.2 l -1.3,0.6 c -0.4,3.2 -1.4,7.1 -2.6,9.8 0.9,3.8 2.4,7.8 4.2,10.9 2.7,-5.5 4.3,-9.8 5.1,-15 z" />
        <path
           id="path1100"
           d="m 140.1,181.6 c 1.4,3 2.9,4.7 5.4,6.2 2.6,-3.7 4.1,-7.7 5,-12 -6.6,3.5 -6.5,3.5 -10.4,5.8 z" />
        <path
           id="path1102"
           d="m 167.4,195.4 c 0.6,-3.9 0.7,-7.7 -2.8,-10 -4,-1.2 -7.8,-2.5 -10.8,-5.1 1.9,2.2 3,5.1 3.1,8 2.6,3.7 7.1,5.6 10.5,7.1 z" />
        <path
           id="path1104"
           d="m 158.2,199.5 c -3.7,-1.5 -6.6,-3.7 -9,-6.2 1.1,3.7 0.8,7 0.2,10.2 2.9,-0.3 5.3,2.8 7.1,4.8 z" />
        <path
           id="path1106"
           d="m 167.4,195.4 c -3.9,-1.6 -7.4,-3.5 -10.2,-6.5 2.2,3.3 1.9,7.1 1,10.8 0.6,3.6 2.2,6 5.2,7.4 2,-4.1 3.3,-7.7 3.9,-11.7 z" />
        <path
           id="path1108"
           d="m 138.8,182 c -3.2,0.6 -3.2,0.6 -7,1.4 0.6,4 2.6,6.3 4.3,8.4 1.5,-2.6 2.1,-6.7 2.7,-9.8 z" />
        <path
           id="path1110"
           d="m 132,184 c -0.8,3.2 -1.8,5.1 -4.1,7.7 l 0.2,1.6 0.2,1.6 0.4,1.6 0.2,0.8 0.3,0.8 0.6,1.4 0.7,1.4 0.8,1.4 0.5,1.4 c 2.5,-2.7 3.9,-7.3 4.4,-11.6 -2.6,-3 -3.4,-5 -4.2,-8.1 z" />
        <path
           id="path1112"
           d="m 131.9,203.8 c 0.4,5.6 2.3,8.6 4.9,11.1 2,-4 3.1,-8.1 3.5,-12.4 -2,-4 -3.4,-7 -4.2,-10.8 -0.4,6 -2.1,8.5 -4.2,12 z" />
        <path
           id="path1114"
           d="m 131.8,224.5 h 0.1 c 2.4,-2.2 4.2,-5.2 4.9,-9.5 -2.9,-2.6 -4.2,-6.9 -4.9,-10.6 -0.9,3.8 -1.8,8.1 -4.9,10.5 0.3,4.5 2.5,7.6 4.8,9.6 z" />
        <path
           id="path1116"
           d="m 136.9,215 c -0.9,4.3 -2.8,7.2 -5.1,9.5 1.2,4.9 3.3,7.1 5.6,9.2 3,-4.6 3.2,-8.4 2.5,-13.2 -1.9,-1.8 -2.5,-3.4 -3,-5.5 z" />
        <path
           id="path1118"
           d="m 136.8,215 c 0.7,3.2 3.1,6.1 5.6,6.7 0,-6.5 2.3,-11.1 4.8,-12.2 -3.1,-1.3 -6,-3.9 -6.9,-7 -0.3,4.8 -1.8,9 -3.4,12.5 z" />
        <path
           id="path1120"
           d="m 137.4,233.7 c 1.3,2.2 8.1,7.1 13.3,3.8 -5.6,-4.2 -7.8,-9.7 -8.3,-15.8 -0.9,-0.2 -1.8,-0.6 -2.5,-1.3 1.1,5.4 -0.3,9.6 -2.5,13.3 z" />
        <path
           id="path1122"
           d="m 131.8,224.3 c -0.9,3.9 -2.7,7.3 -5.5,9.3 l 2.4,8.3 3.2,6.3 c 1,-2.1 2.1,-4.2 3.1,-6.3 l 2.4,-8.3 c -2.9,-2.4 -4.8,-5.4 -5.7,-9.3 z" />
        <path
           id="path1124"
           d="m 137.4,233.6 1.8,8.1 -1.8,-8.1 -2.4,8.3 c 1,4.2 3.8,7.7 6.1,10.8 1.8,-5.5 2.1,-10.3 1.2,-15.2 -1.6,-0.7 -3,-1.9 -4.2,-3 z" />
        <path
           id="path1126"
           d="m 135,242 c -0.8,1.6 -1.1,2.4 -3.2,6.3 v 6.4 c 1.4,5.9 5.4,10.5 8.8,14.4 0.8,-5.9 1.2,-11.1 0.4,-16.4 -3.2,-3.9 -4.9,-6.8 -6,-10.7 z" />
        <path
           id="path1128"
           d="m 163.5,207.3 c -0.4,3.4 -0.2,5.2 -2.1,9.2 -1.4,3.8 0.7,8.1 3.8,10.4 1.3,-2.9 1.5,-7.3 1.6,-10.6 -1.9,-2.9 -2.8,-5.8 -3.3,-9 z" />
        <path
           id="path1130"
           d="m 161.2,217.6 c 1.7,-3.6 2,-6.7 2.4,-10.2 -2.8,-1.7 -5.1,-4 -5.3,-7.8 l -1.7,8.8 c 0.7,3.5 2.6,6.8 4.6,9.2 z" />
        <path
           id="path1132"
           d="m 166.8,216.3 c 2.4,-4.5 3,-8.3 3.5,-12.7 -2.7,-2.2 -2.9,-5.5 -2.8,-8.1 -1,4.2 -2,8.1 -3.9,11.2 0.3,3.4 1.6,7 3.2,9.6 z" />
        <path
           id="path1134"
           d="m 156.5,208.3 -1.2,10.6 c -0.3,2.9 -1.8,5.4 -4,7 3.2,1 5.1,1.5 7.4,-1.9 1.2,-2 1.8,-4.5 2.3,-6.5 -2.2,-2.7 -3.9,-5.9 -4.5,-9.2 z" />
        <path
           id="path1136"
           d="m 155.3,218.9 1.2,-10.6 c -2.6,-2.9 -4.4,-5.1 -7,-4.8 -0.8,2.4 -1.3,4 -2.3,6.2 4.7,-1.2 8.2,0 8.1,9.2 z" />
        <path
           id="path1138"
           d="m 142.3,237.6 c 2.6,3.8 3.5,6.4 5,9.9 l 6.5,6.2 v 0 l 7,3.7 c -2.4,-9.8 -6.5,-14.1 -11.4,-19 -3,0.5 -4.1,0.2 -7.1,-0.8 z" />
        <path
           id="path1140"
           d="m 142.2,237.3 c 1.4,7.8 -0.2,11.4 -0.9,15.4 0.5,4.9 3.1,8.9 7,11.5 1.3,-9.6 0.5,-16.9 -6.1,-26.9 z" />
        <path
           id="path1142"
           d="m 141.1,252.7 c 0.8,6.1 0.1,11.1 -0.5,16.4 v 0 l 0.2,2.1 c 1.5,5.8 4,11.2 9,15.2 2.1,-9.5 1.9,-15.9 -1.6,-22.2 -3.8,-3.1 -5.5,-5.8 -7,-11.6 z" />
        <path
           id="path1144"
           d="m 147.2,247.4 c 1.7,5.5 1.5,11.7 1,16.8 v 0 c 3.5,3.5 6.4,7.9 8.7,11.6 1.6,-6.9 1.5,-16.9 -3,-22.3 -2.7,-2.7 -3.8,-3.9 -6.7,-6.2 z" />
        <path
           id="path1146"
           d="m 140.8,269.1 v 0 c -4.2,-4.9 -7.1,-8.9 -8.9,-14.4 v 30.8 -30.8 -0.1 c -1.6,5.6 -4.9,10.1 -8.9,14.6 -1.7,16 1.4,22.1 9.2,32.2 8,-10.5 10.8,-17 8.6,-32.2 z" />
      </g>
      <path
         id="path1150"
         d="m 205.4,243 c -3.3,2.1 -2.9,5 -1.6,7.5 1.8,-2.1 5,0 5.8,1.9 1,-4.9 1.4,-7.4 -4.2,-9.4 z"
         style="fill:#ffcc00;stroke:#996600" />
      <path
         id="path1152"
         d="m 184.7,259.4 c -2.1,-3.9 -4.5,-3.7 -6.3,-1.4 -1.5,5.9 2.5,8.4 7.6,9 -3.9,-2.4 -4.6,-6.2 -1.3,-7.7 z"
         style="fill:#ffcc00;stroke:#996600" />
      <g
         id="g1206"
         style="fill:none;stroke:#666666">
        <path
           id="path1154"
           d="m 219,65.2 c -4.5,4.9 -7.9,8.1 -12.4,12.43025" />
        <path
           id="path1156"
           d="m 202.8,67.3 c 3.1,-5.4 4.8,-9.5 6.2,-14.6" />
        <path
           id="path1158"
           d="m 192.3,78.8 c 3.9,-1.4 7.5,-3 10.4,-5.5" />
        <path
           id="path1160"
           d="m 153.8,42.3 c 2.4,2.9 9.4,0.2 11.5,-1.273786" />
        <path
           id="path1162"
           d="m 157.8,62.7 c -0.8,1.3 -2.3,2.1 -3.9,2.501" />
        <path
           id="path1164"
           d="m 163.6,37.7 c 1.4,3.4 5.9,8.2 7.5,5.20625" />
        <path
           id="path1166"
           d="m 164.7,138.1 c 0.3,3.2 0.9,6 1.4,9.13483" />
        <path
           id="path1168"
           d="m 206.2,98.2 -7.301,-1.7" />
        <path
           id="path1170"
           d="m 223.4,108.5 c -6.6,-0.1 -11.7,-0.4 -17.8,-0.95581" />
        <path
           id="path1172"
           d="m 225,85.6 c -5.6,2.6 -11.6,4.9 -17,6.779029" />
        <path
           id="path1174"
           d="m 196.9,87.3 c 4.4,-0.4 7.3,-1 11.2,-2.201" />
        <path
           id="path1176"
           d="m 178.7,117.3 c 0.7,4.8 2.3,9 4,12.7625" />
        <path
           id="path1178"
           d="m 200.7,110 c -2.9,-1 -6.3,-2.8 -8.6,-5.152" />
        <path
           id="path1180"
           d="m 192.9,121.4 c -2.3,-2.5 -4.4,-5.5 -5.9,-8.35" />
        <path
           id="path1182"
           d="m 207.2,153.1 c -7.3,-7 -13,-13.4 -18.2,-20.77422" />
        <path
           id="path1184"
           d="m 199,122.6 c 7.3,4.3 14.9,8 21.9,11.02422" />
        <path
           id="path1186"
           d="m 168,122.6 2.5,12.049" />
        <path
           id="path1188"
           d="m 189.4,167 c -5.1,-10.7 -9.1,-22.5 -11.7,-32.58383" />
        <path
           id="path1190"
           d="m 131.9,285.4 -0.1,-28.84965" />
        <path
           id="path1192"
           d="m 144.1,238.4 6.1,6.9" />
        <path
           id="path1194"
           d="M 136.9,255 135,242.51872" />
        <path
           id="path1196"
           d="M 128.7,241.95" />
        <path
           id="path1198"
           d="m 139.2,241.8 -1.801,-8.1" />
        <path
           id="path1200"
           d="m 142.7,246.2 1.9,6.75" />
        <path
           id="path1202"
           d="m 153.2,260.4 -5.4,-11.55" />
        <path
           id="path1204"
           d="m 146,273.1 -4.201,-17.35" />
      </g>
    </g>
    <use
       height="100%"
       width="100%"
       y="0"
       x="0"
       id="use1210"
       transform="matrix(-1,0,0,1,263,0)"
       xlink:href="#right_part" />
    <path
       id="path1212"
       d="m 102,90 c -1,0 -2,1 -2,2 v 52 a 31.5,40 0 0 0 63,0 V 92 c 0,-1 -1,-2 -2,-2 z"
       style="fill:#ffcc00;stroke:#996600;stroke-width:0.5" />
    <path
       id="path1214"
       d="m 161.5,91.5 h -60 v 54 a 30,37 0 0 0 60,0 z"
       style="fill:#1059d3" />
    <path
       sodipodi:nodetypes="ccccccccscccssccccccscccccscccccsccccccsscccscccccccccccccccccccscssccccccccccsscsccccc"
       id="path1216"
       style="color:#000000;font-style:normal;font-variant:normal;font-weight:normal;font-stretch:normal;font-size:medium;line-height:normal;font-family:sans-serif;font-variant-ligatures:normal;font-variant-position:normal;font-variant-caps:normal;font-variant-numeric:normal;font-variant-alternates:normal;font-variant-east-asian:normal;font-feature-settings:normal;font-variation-settings:normal;text-indent:0;text-align:start;text-decoration:none;text-decoration-line:none;text-decoration-style:solid;text-decoration-color:#000000;letter-spacing:normal;word-spacing:normal;text-transform:none;writing-mode:lr-tb;direction:ltr;text-orientation:mixed;dominant-baseline:auto;baseline-shift:baseline;text-anchor:start;white-space:normal;shape-padding:0;shape-margin:0;inline-size:0;clip-rule:nonzero;display:inline;overflow:visible;visibility:visible;opacity:1;isolation:auto;mix-blend-mode:normal;color-interpolation:sRGB;color-interpolation-filters:linearRGB;solid-color:#000000;solid-opacity:1;vector-effect:none;fill:#ffcc00;fill-opacity:1;fill-rule:nonzero;stroke:none;stroke-width:2.51039;stroke-linecap:butt;stroke-linejoin:miter;stroke-miterlimit:4;stroke-dasharray:none;stroke-dashoffset:0;stroke-opacity:1;color-rendering:auto;image-rendering:auto;shape-rendering:auto;text-rendering:auto;enable-background:accumulate;stop-color:#000000;stop-opacity:1"
       d="m 131.5,95.199997 -5.52482,8.288223 3.84796,5.7739 h -3.59497 v 7.53118 h 4.01663 v 19.58106 h -3.87542 c -0.29019,-5.24748 -1.55567,-9.99329 -3.57927,-13.61888 -2.22465,-3.98586 -5.42633,-6.74145 -9.16882,-6.94673 l 2.31427,3.18899 v 24.40572 c -1.38645,0 -2.51039,1.12394 -2.51039,2.51039 0,1.38645 1.12394,2.5104 2.51039,2.5104 1.38645,0 2.5104,-1.12395 2.5104,-2.5104 h 5.36203 l 6.43681,9.42771 v 8.14505 h -6.11124 c -0.44825,-0.77641 -1.27653,-1.25484 -2.17305,-1.2552 -1.38645,0 -2.5104,1.12394 -2.5104,2.51039 0,1.38645 1.12395,2.5104 2.5104,2.5104 0.89652,-3.7e-4 1.7248,-0.4788 2.17305,-1.2552 h 6.11124 v 8.11955 c -0.7764,0.44826 -1.25483,1.27654 -1.25519,2.17306 0,1.38645 1.12394,2.51039 2.51039,2.51039 1.38645,0 2.5104,-1.12394 2.5104,-2.51039 -3.7e-4,-0.89652 -0.4788,-1.7248 -1.2552,-2.17306 V 165.997 h 6.11124 c 0.44826,0.7764 1.27653,1.25483 2.17306,1.2552 1.38645,0 2.51039,-1.12395 2.51039,-2.5104 0,-1.38645 -1.12394,-2.51039 -2.51039,-2.51039 -0.89653,3.6e-4 -1.7248,0.47879 -2.17306,1.2552 h -6.11124 v -8.14505 l 6.43681,-9.42771 h 5.36204 c 0,1.38645 1.12394,2.5104 2.51039,2.5104 1.38645,0 2.51039,-1.12395 2.51039,-2.5104 0,-1.38645 -1.12394,-2.51039 -2.51039,-2.51039 v -24.40572 l 2.31427,-3.18899 c -3.74248,0.20528 -6.94417,2.96087 -9.16882,6.94673 -2.0236,3.62559 -3.28907,8.3714 -3.57927,13.61888 H 132.7552 V 116.7933 h 4.01663 v -7.53118 h -3.59496 l 3.84796,-5.7739 z m 0,4.52655 2.50844,3.761673 -2.50844,3.76166 -2.50844,-3.76166 z m -2.76143,12.045963 h 5.52287 v 2.5104 h -5.52287 z m -10.29261,9.19628 c 0.76878,0.8223 1.49337,1.82787 2.15344,3.01051 1.77124,3.17347 2.92845,7.54265 3.21645,12.39506 -1.38339,0.004 -2.50256,1.127 -2.50255,2.51039 0,1.38645 1.12394,2.5104 2.51039,2.5104 1.38645,0 2.51039,-1.12395 2.51039,-2.5104 h 3.91072 v 4.51871 h -11.79884 z m 26.10809,0 v 22.43467 H 132.7552 v -4.51871 h 3.91072 c 0,1.38645 1.12394,2.5104 2.51039,2.5104 1.38645,0 2.5104,-1.12395 2.5104,-2.5104 1e-5,-1.38339 -1.11917,-2.50607 -2.50255,-2.51039 0.28799,-4.85241 1.4452,-9.22159 3.21644,-12.39506 0.66007,-1.18264 1.38466,-2.18821 2.15345,-3.01051 z m -17.70612,24.94506 h 9.30414 L 131.5,152.72918 Z" />
  </g>
</svg>
